<svg xmlns="http://www.w3.org/2000/svg" viewBox="0 0 512 512"><path d="M343.495 285.792c14.366-9.953 27.601-19.937 39.64-29.792-12.039-9.855-25.274-19.839-39.64-29.792.332 9.64.505 19.57.505 29.792s-.173 20.151-.505 29.792zM209.617 424.041c.199.01.396.03.595.044.333.023.667.043.998.076.251.025.499.061.748.092.272.034.546.063.817.104.281.042.557.095.835.144.235.042.47.079.703.126.301.06.599.131.897.2.203.047.408.09.61.141.321.081.637.171.954.261.174.049.348.095.521.148.336.102.667.213.999.326.148.05.297.098.443.15.35.125.696.259 1.041.395.121.048.244.094.364.144.362.148.719.306 1.074.467.099.045.198.088.297.134.371.173.737.355 1.101.542l.231.118c.379.199.752.406 1.122.619.057.033.115.065.171.099.384.224.761.457 1.135.697l.119.076c.385.25.764.508 1.137.773l.079.056c.383.274.76.557 1.13.848l.043.034c.379.299.751.605 1.116.92l.015.013C235.698 437.655 240 446.322 240 456c0 8.855-3.598 16.87-9.411 22.664C238.874 489.933 247.556 496 256 496c22.539 0 46.779-43.186 60.597-113.392-18.895-7.104-39.146-15.954-60.597-26.678-21.452 10.724-41.702 19.574-60.598 26.678 2.98 15.139 6.443 29.022 10.27 41.486.77-.055 1.544-.093 2.327-.093.543-.001 1.082.013 1.618.04zM300 179.79a866.828 866.828 0 0 1 25.548 15.333c-1.437-17.417-3.466-33.872-5.981-49.225-14.553 5.498-29.818 11.969-45.621 19.433A866.836 866.836 0 0 1 300 179.79zM256 337.874a758.944 758.944 0 0 0 36-19.521 758.948 758.948 0 0 0 34.905-21.417A759.43 759.43 0 0 0 328 256c0-14.093-.383-27.751-1.094-40.937a759.827 759.827 0 0 0-34.905-21.417 760.76 760.76 0 0 0-36-19.521 759.775 759.775 0 0 0-36 19.521 758.992 758.992 0 0 0-34.906 21.417A758.438 758.438 0 0 0 184 256c0 14.093.382 27.751 1.094 40.937A759.33 759.33 0 0 0 220 318.354a758.831 758.831 0 0 0 36 19.52zM256 208c26.51 0 48 21.49 48 48s-21.49 48-48 48-48-21.49-48-48 21.49-48 48-48zM392 152a31.842 31.842 0 0 1-17.336-5.109l-.123-.079a31.773 31.773 0 0 1-1.032-.704l-.182-.129a31.705 31.705 0 0 1-.956-.716l-.217-.17c-.302-.24-.601-.484-.894-.734-.078-.066-.155-.134-.232-.201a31.93 31.93 0 0 1-.845-.758l-.232-.221a31.59 31.59 0 0 1-.806-.79l-.217-.227a32.277 32.277 0 0 1-.779-.834c-.057-.063-.111-.13-.168-.194a32.338 32.338 0 0 1-.783-.916l-.007-.009a32.19 32.19 0 0 1-2.278-3.176c-.069-.109-.141-.216-.209-.326-.156-.254-.302-.513-.451-.771-.1-.174-.203-.347-.3-.523-.131-.238-.255-.481-.381-.723-.105-.203-.211-.405-.312-.61-.114-.232-.221-.466-.33-.701-.102-.222-.205-.443-.302-.668-.1-.23-.194-.462-.289-.694l-.042-.101c-8.603 2.342-17.604 5.106-26.953 8.3 3.295 19.916 5.756 41.878 7.195 65.818 20.013 13.216 37.803 26.328 53.403 39.14 53.891-47.07 79.171-89.655 67.902-109.175-5.363-9.289-19.394-14.019-39.919-13.937C422.862 138.774 408.979 152 392 152zM65.617 168.041c.2.01.396.03.595.044.333.023.667.043.997.076.251.025.499.061.748.092.272.034.546.063.817.104.28.042.557.095.835.144.234.042.47.079.703.126.301.06.599.131.897.2.203.047.408.09.61.141.32.08.635.171.951.26.175.05.351.096.525.149.336.102.667.213.998.326.147.05.296.098.443.15.349.124.693.258 1.037.394.123.049.248.095.37.146.362.149.719.306 1.073.467.098.045.197.088.294.133.371.173.737.355 1.1.542.078.04.156.079.233.12.377.198.75.405 1.118.617l.176.101c.382.224.759.456 1.131.695l.123.079c.384.249.762.507 1.134.772l.08.057c.383.274.759.556 1.129.847l.044.035c.379.298.75.604 1.115.919l.017.015c.371.321.734.649 1.09.986 6.155 5.832 10 14.077 10 23.226 0 7.434-2.542 14.27-6.795 19.703 7.944 8.261 16.909 16.79 26.85 25.473 15.6-12.812 33.39-25.924 53.403-39.14 1.439-23.939 3.899-45.902 7.195-65.818C108.944 117.081 59.424 116.48 48.154 136c-4.611 7.987-3.093 19.841 3.989 34.279a31.89 31.89 0 0 1 13.474-2.238zM316.597 129.392C302.779 59.186 278.539 16 256 16c-22.54 0-46.779 43.186-60.598 113.392 18.895 7.104 39.146 15.954 60.598 26.678 21.452-10.723 41.702-19.574 60.597-26.678zM168 256c0-10.222.173-20.151.505-29.792-14.365 9.953-27.601 19.937-39.64 29.792 12.039 9.855 25.274 19.839 39.64 29.792A865.71 865.71 0 0 1 168 256zM238.053 165.331c-15.802-7.464-31.067-13.935-45.621-19.433-2.515 15.353-4.544 31.808-5.981 49.225a868.137 868.137 0 0 1 25.548-15.333 868.07 868.07 0 0 1 26.054-14.459zM395.944 266.825c-15.6 12.812-33.39 25.924-53.403 39.14-1.439 23.939-3.899 45.902-7.195 65.818 67.709 23.136 117.229 23.737 128.499 4.217 11.271-19.52-14.01-62.105-67.901-109.175zM186.452 316.877c1.437 17.417 3.466 33.872 5.981 49.225 14.553-5.498 29.818-11.969 45.62-19.433A868.042 868.042 0 0 1 212 332.21a866.828 866.828 0 0 1-25.548-15.333zM300 332.21a868.042 868.042 0 0 1-26.053 14.459c15.802 7.464 31.067 13.935 45.621 19.433 2.515-15.353 4.544-31.808 5.981-49.225A868.212 868.212 0 0 1 300 332.21zM116.056 266.825C62.165 313.895 36.884 356.48 48.154 376c11.27 19.52 60.79 18.919 128.499-4.217-3.296-19.916-5.756-41.878-7.195-65.818-20.013-13.216-37.803-26.328-53.402-39.14z" fill="none"/><path d="M408.689 256c62.099-54.576 83.729-102.512 69.014-128-8.123-14.07-27.717-21.96-56.806-21.759A31.888 31.888 0 0 1 424 120c0 .694-.03 1.38-.073 2.063 20.525-.083 34.556 4.647 39.919 13.937 11.27 19.52-14.011 62.105-67.902 109.175-15.6-12.812-33.39-25.924-53.403-39.14-1.439-23.939-3.899-45.902-7.195-65.818 9.35-3.195 18.35-5.959 26.953-8.3a31.875 31.875 0 0 1-.955-2.733 30.094 30.094 0 0 1-.221-.78 31.29 31.29 0 0 1-.18-.685 31.42 31.42 0 0 1-.189-.819c-.05-.225-.1-.449-.144-.675-.057-.286-.105-.574-.154-.863-.037-.219-.076-.438-.109-.658a31.075 31.075 0 0 1-.117-.924c-.024-.207-.053-.413-.073-.622a29.857 29.857 0 0 1-.079-1.042c-.011-.176-.028-.349-.037-.526a32.32 32.32 0 0 1 .302-6.254c-8.917 2.336-18.254 5.136-27.998 8.432C316.13 42.7 285.43 0 256 0c-29.431 0-60.13 42.7-76.344 123.768C101.342 97.276 49.013 102.512 34.297 128c-7.198 12.468-5.687 30.312 4.989 51.672a32.078 32.078 0 0 1 12.857-9.393c-7.082-14.437-8.6-26.292-3.989-34.279 11.27-19.52 60.79-18.919 128.499 4.217-3.296 19.916-5.756 41.878-7.195 65.818-20.013 13.216-37.803 26.328-53.403 39.14-9.941-8.683-18.907-17.212-26.85-25.473a32.075 32.075 0 0 1-13.263 9.985c8.041 8.544 17.159 17.338 27.369 26.312-62.099 54.576-83.729 102.512-69.014 128 14.715 25.488 67.044 30.724 145.358 4.232 3.016 15.081 6.532 28.838 10.45 41.235a31.824 31.824 0 0 1 15.567-5.374c-3.828-12.463-7.291-26.347-10.27-41.486 18.895-7.104 39.146-15.954 60.598-26.678 21.452 10.724 41.702 19.574 60.597 26.678C302.779 452.814 278.539 496 256 496c-8.444 0-17.126-6.066-25.411-17.336a31.983 31.983 0 0 1-13.486 8.015C229.38 503.423 242.817 512 256 512c29.43 0 60.13-42.7 76.344-123.768 78.313 26.491 130.643 21.255 145.358-4.232 14.716-25.488-6.914-73.424-69.013-128zm-25.554 0c-12.039 9.855-25.274 19.839-39.64 29.792.332-9.641.505-19.57.505-29.792s-.173-20.151-.505-29.792c14.366 9.953 27.601 19.937 39.64 29.792zM184 256c0-14.093.382-27.751 1.094-40.937A759.33 759.33 0 0 1 220 193.646a759.775 759.775 0 0 1 36-19.521 760.76 760.76 0 0 1 36 19.521 758.948 758.948 0 0 1 34.905 21.417A759.467 759.467 0 0 1 328 256c0 14.093-.383 27.751-1.094 40.937a759.827 759.827 0 0 1-34.905 21.417 760.76 760.76 0 0 1-36 19.521 757.964 757.964 0 0 1-36-19.521 758.992 758.992 0 0 1-34.906-21.417A758.466 758.466 0 0 1 184 256zm141.548-60.877A868.137 868.137 0 0 0 300 179.79a868.042 868.042 0 0 0-26.053-14.459c15.802-7.464 31.067-13.935 45.621-19.433 2.515 15.353 4.543 31.807 5.98 49.225zM256 16c22.539 0 46.779 43.186 60.597 113.392-18.895 7.104-39.146 15.954-60.597 26.678-21.452-10.724-41.702-19.574-60.598-26.678C209.221 59.186 233.46 16 256 16zm-63.568 129.898c14.553 5.498 29.818 11.969 45.621 19.433A866.809 866.809 0 0 0 212 179.79a866.828 866.828 0 0 0-25.548 15.333c1.436-17.418 3.465-33.872 5.98-49.225zm-23.927 80.31c-.332 9.64-.505 19.57-.505 29.792s.173 20.151.505 29.792c-14.365-9.953-27.601-19.937-39.64-29.792 12.038-9.855 25.274-19.839 39.64-29.792zM48.154 376c-11.27-19.52 14.011-62.105 67.902-109.175 15.6 12.812 33.39 25.924 53.403 39.14 1.439 23.939 3.899 45.902 7.195 65.818-67.71 23.135-117.23 23.736-128.5 4.217zm144.278-9.898c-2.515-15.353-4.544-31.808-5.981-49.225a868.137 868.137 0 0 0 25.548 15.333 866.809 866.809 0 0 0 26.053 14.459c-15.801 7.464-31.066 13.935-45.62 19.433zm81.515-19.433A866.809 866.809 0 0 0 300 332.21a866.828 866.828 0 0 0 25.548-15.333c-1.437 17.417-3.466 33.872-5.981 49.225-14.553-5.498-29.818-11.969-45.62-19.433zM463.846 376c-11.27 19.52-60.79 18.919-128.499-4.217 3.296-19.916 5.756-41.878 7.195-65.818 20.013-13.216 37.803-26.328 53.403-39.14 53.89 47.07 79.171 89.655 67.901 109.175z" fill="#5c546a"/><circle cx="256" cy="256" r="48" fill="#ffcf00"/><path d="M211.958 424.252c-.25-.031-.497-.067-.748-.092.25.025.498.061.748.092zM210.212 424.084c-.199-.014-.396-.034-.595-.044.199.011.396.031.595.044zM240 456c0-9.678-4.302-18.345-11.091-24.213.371.321.735.65 1.091.987a32.242 32.242 0 0 0-3.866-.241c-17.673 0-32 14.327-32 32 0 9.149 3.845 17.394 10 23.226a31.823 31.823 0 0 1-12.323-4.16 31.846 31.846 0 0 0 16.189 4.4 31.973 31.973 0 0 0 22.589-9.337C236.402 472.87 240 464.855 240 456zM222.612 427.534zM191.797 483.592zM226.526 429.917zM225.271 429.067zM213.609 424.5c-.278-.049-.554-.102-.835-.144.28.042.557.095.835.144zM215.21 424.825c-.298-.069-.596-.14-.897-.2.301.061.598.132.897.2zM228.894 431.774zM216.773 425.228c-.317-.09-.633-.181-.954-.261.321.08.637.17.954.261zM219.776 426.247zM218.292 425.701zM221.214 426.857zM223.964 428.271zM178.063 467.309c-.087-.229-.169-.46-.251-.691.081.231.164.462.251.691zM177.559 465.872zM180.706 472.708c-.156-.254-.302-.513-.451-.771.149.258.296.517.451.771zM179.955 471.414c-.132-.239-.256-.482-.381-.725.125.242.249.486.381.725zM177.123 464.403zM179.262 470.082c-.114-.233-.222-.469-.331-.705.109.236.217.472.331.705zM178.63 468.712c-.1-.23-.194-.462-.289-.694.095.232.19.464.289.694zM227.735 430.82zM176.077 458.114c-.011-.175-.028-.349-.037-.525.009.176.026.349.037.525zM176.23 459.778c-.024-.207-.053-.413-.073-.622.02.209.048.415.073.622zM190.543 482.813zM176.754 462.899c-.049-.224-.099-.449-.144-.675.045.226.095.45.144.675zM176.456 461.361c-.037-.219-.076-.438-.109-.659.032.221.072.44.109.659zM183.194 476.211zM188.155 481.093zM189.328 481.98zM183.986 477.138zM187.029 480.159zM184.933 478.166zM185.952 479.18z" fill="#ffedb9"/><path d="M194.133 464.533c0-17.673 14.327-32 32-32 1.31 0 2.598.088 3.866.241-.356-.337-.72-.666-1.091-.987l-.015-.013a31.666 31.666 0 0 0-1.116-.92l-.043-.034c-.37-.291-.747-.573-1.13-.848l-.079-.056a30.29 30.29 0 0 0-1.137-.773l-.119-.076c-.373-.24-.751-.472-1.135-.697l-.171-.099c-.37-.214-.743-.42-1.122-.619-.076-.04-.154-.079-.231-.118-.363-.187-.73-.369-1.101-.542-.098-.046-.198-.089-.297-.134a31.076 31.076 0 0 0-1.074-.467c-.121-.05-.243-.095-.364-.144-.344-.137-.69-.271-1.041-.395-.147-.052-.296-.1-.443-.15a30.655 30.655 0 0 0-.999-.326c-.172-.052-.347-.098-.521-.148-.317-.09-.633-.181-.954-.261-.202-.051-.406-.094-.61-.141-.298-.069-.596-.14-.897-.2-.233-.047-.469-.084-.703-.126-.278-.049-.555-.102-.835-.144-.27-.041-.544-.07-.817-.104-.25-.031-.497-.067-.748-.092-.33-.033-.664-.053-.998-.076-.198-.014-.395-.034-.595-.044A33.076 33.076 0 0 0 208 424c-.784 0-1.558.038-2.327.093a31.814 31.814 0 0 0-15.567 5.374C181.595 435.218 176 444.955 176 456c0 .533.014 1.062.04 1.589.009.176.026.35.037.525.023.349.045.697.079 1.042.021.208.049.415.073.622.036.309.072.618.117.924.032.221.072.439.109.659.049.288.098.577.154.863.045.226.095.451.144.675.06.274.122.548.189.819a32.851 32.851 0 0 0 .402 1.465 30.645 30.645 0 0 0 .467 1.434 31.477 31.477 0 0 0 .819 2.093c.097.224.199.444.301.665.109.236.217.472.331.705.101.204.206.405.311.607.125.243.25.486.381.725.097.176.2.349.301.523.149.258.295.518.451.771.067.11.14.217.209.326a32.094 32.094 0 0 0 2.279 3.177l.006.008c.255.313.519.617.786.92.055.063.108.127.164.189.255.285.518.563.783.838.071.074.141.15.213.223.264.269.534.531.807.791l.231.221c.277.258.56.51.846.759.077.067.153.134.231.2.294.25.592.495.895.734l.217.171c.314.244.633.483.956.716l.181.128c.34.241.684.477 1.034.705l.12.077c.373.241.751.476 1.135.701l.013.008a31.812 31.812 0 0 0 12.323 4.16c-6.156-5.831-10.002-14.076-10.002-23.225z" fill="#ffd586"/><path d="M405.511 90.992zM395.209 88.16c.251.025.499.061.748.092-.249-.031-.497-.067-.748-.092zM404.141 90.39zM406.842 91.652zM399.819 88.966c.321.081.638.171.955.262-.317-.09-.634-.181-.955-.262zM398.312 88.626c.301.06.599.131.897.2-.298-.069-.595-.14-.897-.2zM402.735 89.851zM401.293 89.375zM396.774 88.356c.281.042.557.095.835.144-.278-.049-.554-.102-.835-.144zM369.952 143.18zM373.509 146.109zM372.372 145.264zM371.261 144.36zM370.184 143.401zM368.151 141.329zM411.776 94.853zM410.133 96.533c-17.673 0-32 14.327-32 32 0 9.149 3.845 17.394 10 23.226a31.8 31.8 0 0 1-12.321-4.159A31.842 31.842 0 0 0 392 152c16.979 0 30.862-13.226 31.927-29.937.043-.683.073-1.369.073-2.063a31.86 31.86 0 0 0-3.104-13.759A32.09 32.09 0 0 0 414 96.775a32.052 32.052 0 0 0-3.867-.242zM374.665 146.891zM408.135 92.37zM363.574 134.69c.125.242.249.485.381.723-.132-.238-.255-.481-.381-.723zM362.342 132.018zM410.604 93.972zM362.932 133.38c.108.235.216.469.33.701-.114-.232-.221-.467-.33-.701zM409.389 93.143zM367.2 140.219zM364.915 137.034zM364.255 135.937c.149.258.296.518.451.771-.156-.254-.302-.513-.451-.771zM393.617 88.041c.199.01.396.03.595.044-.199-.014-.396-.034-.595-.044zM360.077 122.114c-.011-.176-.028-.349-.037-.526.009.177.025.35.037.526zM361.559 129.872zM360.456 125.361c-.037-.219-.076-.438-.109-.658.032.22.072.439.109.658zM362.063 131.309zM360.23 123.778c-.024-.207-.053-.413-.073-.622.02.209.048.415.073.622zM361.123 128.403zM360.754 126.899c-.05-.225-.1-.449-.144-.675.044.226.094.45.144.675z" fill="#708aff"/><path d="M360.04 121.589c.009.176.025.35.037.526.023.349.046.697.079 1.042.021.208.049.414.073.622.036.309.072.618.117.924.032.221.072.439.109.658.049.289.098.577.154.863.044.226.094.451.144.675.06.274.122.548.189.819.057.229.118.457.18.685a33.243 33.243 0 0 0 .436 1.469 31.029 31.029 0 0 0 .503 1.436c.077.204.156.406.237.608l.042.101c.094.232.189.464.289.694.097.224.2.446.302.668.108.235.216.47.33.701.101.205.207.407.312.61.125.242.249.485.381.723.097.176.2.349.3.523.149.258.295.518.451.771.068.11.14.217.209.326a32.071 32.071 0 0 0 2.278 3.176l.007.009c.254.311.517.615.783.916.056.064.111.13.168.194.254.284.515.56.779.834.073.075.143.153.217.227.263.268.533.531.806.79l.232.221c.277.258.559.51.845.758.077.067.154.135.232.201a33.187 33.187 0 0 0 2.067 1.62l.182.129c.339.241.683.476 1.032.704l.123.079c.372.24.749.475 1.132.7l.016.009a31.823 31.823 0 0 0 12.321 4.159c-6.155-5.832-10-14.077-10-23.226 0-17.673 14.327-32 32-32 1.31 0 2.598.088 3.866.241-.356-.338-.72-.667-1.092-.988l-.014-.012a30.897 30.897 0 0 0-1.158-.954 33.374 33.374 0 0 0-1.132-.849l-.077-.055a31.568 31.568 0 0 0-2.391-1.547l-.17-.098a31.38 31.38 0 0 0-1.123-.62c-.076-.04-.153-.078-.229-.117a31.24 31.24 0 0 0-1.102-.542c-.098-.046-.198-.089-.297-.134a31.892 31.892 0 0 0-1.073-.467c-.121-.05-.244-.096-.365-.144-.344-.137-.69-.27-1.04-.395-.146-.052-.294-.099-.441-.149a31.525 31.525 0 0 0-1-.326c-.172-.052-.346-.098-.519-.147-.317-.09-.634-.181-.955-.262-.202-.051-.406-.094-.61-.141-.298-.069-.596-.14-.897-.2-.233-.047-.469-.084-.703-.126-.278-.049-.554-.102-.835-.144-.271-.041-.544-.07-.817-.104-.249-.031-.497-.067-.748-.092-.33-.033-.664-.053-.997-.076-.198-.014-.396-.034-.595-.044A32.345 32.345 0 0 0 392 88c-16.088 0-29.399 11.874-31.658 27.335a32.32 32.32 0 0 0-.302 6.254z" fill="#3d6edd"/><path d="M47.795 227.59zM46.542 226.812zM32.754 206.899c-.049-.225-.099-.449-.144-.675.045.226.095.45.144.675zM32.077 202.114c-.011-.175-.028-.349-.037-.526.009.177.026.35.037.526zM32.23 203.778c-.024-.207-.053-.413-.073-.622.02.209.048.415.073.622zM33.123 208.403zM32.456 205.361c-.037-.219-.076-.438-.109-.659.033.221.072.44.109.659zM45.326 225.978zM43.029 224.159zM44.155 225.094zM36.706 216.707c-.155-.253-.302-.512-.45-.769.148.257.295.516.45.769zM35.262 214.081c-.114-.231-.221-.466-.329-.701.108.234.215.469.329.701zM34.63 212.712c-.1-.23-.194-.462-.289-.694.095.232.19.464.289.694zM39.186 220.2zM35.955 215.414c-.131-.239-.255-.481-.38-.723.125.241.248.484.38.723zM33.559 209.872zM34.063 211.309zM40.93 222.163zM41.952 223.18zM39.982 221.134zM78.61 171.533zM77.216 170.858zM79.962 172.27zM81.268 173.065zM75.772 170.245zM82.525 173.916zM69.609 168.5c-.278-.049-.555-.102-.835-.144.281.042.558.095.835.144zM67.958 168.252c-.25-.031-.497-.067-.748-.092.251.025.498.061.748.092zM72.77 169.227c-.316-.09-.631-.18-.951-.26.32.08.635.17.951.26zM66.212 168.084c-.199-.013-.396-.034-.595-.044.199.011.396.031.595.044zM71.21 168.826c-.298-.069-.596-.14-.897-.2.301.06.598.131.897.2zM74.293 169.701c-.331-.112-.662-.224-.998-.326.335.103.667.214.998.326zM83.734 174.819zM84.893 175.773zM86 176.774zM89.205 219.702A31.847 31.847 0 0 0 96 200c0-9.149-3.845-17.394-10-23.226a32.242 32.242 0 0 0-3.866-.241c-17.673 0-32 14.327-32 32 0 9.148 3.845 17.394 10 23.226a31.79 31.79 0 0 1-12.318-4.157A31.839 31.839 0 0 0 64 232a31.9 31.9 0 0 0 11.942-2.312 32.08 32.08 0 0 0 13.263-9.986z" fill="#ff7400"/><path d="M50.133 208.533c0-17.673 14.327-32 32-32 1.31 0 2.598.088 3.866.241a30.856 30.856 0 0 0-1.107-1.001 31.8 31.8 0 0 0-2.288-1.801l-.08-.057c-.372-.265-.75-.522-1.134-.772l-.123-.079a32.609 32.609 0 0 0-1.131-.695l-.176-.101a31.096 31.096 0 0 0-1.118-.617c-.077-.041-.156-.08-.233-.12a31.148 31.148 0 0 0-1.1-.542c-.098-.046-.197-.088-.294-.133a34.074 34.074 0 0 0-1.073-.467c-.123-.05-.247-.097-.37-.146a33.046 33.046 0 0 0-1.037-.394c-.146-.052-.295-.1-.443-.15a30.599 30.599 0 0 0-.998-.326c-.174-.053-.35-.099-.525-.149-.316-.09-.631-.18-.951-.26-.202-.051-.407-.094-.61-.141-.298-.069-.596-.14-.897-.2-.233-.047-.469-.084-.703-.126-.278-.049-.555-.102-.835-.144-.271-.041-.544-.07-.817-.104-.25-.031-.497-.067-.748-.092-.33-.033-.664-.053-.997-.076-.199-.014-.396-.034-.595-.044A37.619 37.619 0 0 0 64 168a31.89 31.89 0 0 0-11.857 2.279 32.078 32.078 0 0 0-12.857 9.393 31.865 31.865 0 0 0-7.246 21.917c.009.176.026.35.037.526.023.349.045.697.079 1.042.02.208.049.414.073.622.037.309.072.618.118.924.032.221.072.439.109.659.049.288.098.577.154.863.045.226.095.451.144.675.06.274.122.548.189.819.057.23.118.457.18.685a29.023 29.023 0 0 0 .437 1.469 31.029 31.029 0 0 0 .782 2.145c.094.232.189.464.289.694.097.224.2.446.302.668.108.234.216.469.329.701.101.205.208.407.313.61.125.242.249.485.38.723.097.177.201.349.301.524.148.258.295.516.45.769.069.112.143.221.213.332a32.048 32.048 0 0 0 2.267 3.161l.015.019c.254.311.516.614.781.915.057.064.111.13.168.194.254.283.515.56.779.834l.217.227c.263.268.533.531.806.79l.232.221c.277.258.559.51.845.758.077.067.154.135.232.201.293.25.592.494.894.734l.217.171c.313.244.631.482.954.714l.185.132c.339.24.682.475 1.03.702l.123.079c.372.24.748.474 1.131.699l.021.012a31.823 31.823 0 0 0 12.318 4.157c-6.155-5.832-10.001-14.077-10.001-23.226z" fill="#d55a00"/></svg>