<svg xmlns="http://www.w3.org/2000/svg" viewBox="0 0 497.805 497.805"><path d="M390.288 84.418a218.168 218.168 0 0 1 23.511 23.587c46.514 39.782 76.005 98.892 76.005 164.897 0 31.53-6.735 61.485-18.833 88.516 17.156-33.793 26.833-72.023 26.833-112.516C497.805 111.437 386.367 0 248.902 0c-51.798 0-99.895 15.828-139.733 42.903 33.681-21.523 73.7-34.001 116.635-34.001 65.776 0 124.706 29.283 164.484 75.516zM108.005 413.8a218.35 218.35 0 0 1-23.587-23.511C38.185 350.51 8.902 291.58 8.902 225.805c0-42.935 12.478-82.954 34.001-116.635C15.828 149.007 0 197.105 0 248.902c0 137.465 111.437 248.902 248.902 248.902 40.493 0 78.723-9.677 112.516-26.833-27.03 12.098-56.985 18.833-88.516 18.833-66.005.001-125.115-29.49-164.897-76.004z" fill="#5c546a"/><path d="M84.418 390.288C51.751 352.319 32 302.919 32 248.902c0-45.309 13.901-87.367 37.658-122.159a185.866 185.866 0 0 1 57.086-57.086C161.536 45.901 203.594 32 248.902 32c54.017 0 103.417 19.751 141.386 52.418C350.51 38.185 291.58 8.902 225.805 8.902c-42.935 0-82.954 12.478-116.635 34.001a218.058 218.058 0 0 0-66.267 66.267C21.38 142.851 8.902 182.87 8.902 225.805c0 65.775 29.283 124.705 75.516 164.483z" fill="#5dcfbc"/><path d="M390.288 84.418C352.319 51.751 302.919 32 248.902 32c-45.309 0-87.367 13.901-122.159 37.658 28.636-18.205 62.615-28.756 99.061-28.756 27.963 0 54.469 6.219 78.23 17.331 41.561 5.975 79.312 23.726 109.765 49.772a218.168 218.168 0 0 0-23.511-23.587zM69.658 126.744C45.901 161.536 32 203.594 32 248.902c0 54.017 19.751 103.417 52.418 141.386a218.168 218.168 0 0 0 23.587 23.511c-26.046-30.453-43.797-68.204-49.772-109.765-11.112-23.761-17.331-50.267-17.331-78.23 0-36.445 10.551-70.425 28.756-99.06z" fill="#ffcf00"/><path d="M470.971 361.418c12.098-27.03 18.833-56.985 18.833-88.516 0-66.005-29.49-125.115-76.005-164.897-30.453-26.046-68.204-43.797-109.765-49.772 24.622 11.515 46.287 28.292 63.549 48.891a186.038 186.038 0 0 1 23.098 23.098C431.157 164.14 456.902 215.06 456.902 272c0 102.119-82.784 184.902-184.902 184.902-56.94 0-107.86-25.745-141.778-66.221a186.038 186.038 0 0 1-23.098-23.098c-20.599-17.261-37.376-38.926-48.891-63.549 5.975 41.561 23.726 79.312 49.772 109.765 39.782 46.514 98.892 76.005 164.897 76.005 31.53 0 61.485-6.735 88.516-18.833 48.635-21.768 87.785-60.918 109.553-109.553z" fill="#74749b"/><path d="M248.902 433.805c-45.179 0-86.565-16.212-118.681-43.124C164.14 431.157 215.06 456.902 272 456.902c102.119 0 184.902-82.784 184.902-184.902 0-56.94-25.745-107.86-66.221-141.778 26.912 32.116 43.124 73.502 43.124 118.681 0 102.118-82.784 184.902-184.903 184.902z" fill="#fff"/><path d="M126.744 69.658a185.866 185.866 0 0 0-57.086 57.086c-18.205 28.636-28.756 62.615-28.756 99.061 0 27.963 6.219 54.469 17.331 78.23 11.515 24.622 28.292 46.287 48.891 63.549C80.212 335.468 64 294.081 64 248.902 64 146.784 146.784 64 248.902 64c45.179 0 86.565 16.212 118.681 43.124-17.261-20.599-38.926-37.376-63.549-48.891-23.761-11.112-50.267-17.331-78.23-17.331-36.445 0-70.425 10.551-99.06 28.756z" fill="#fff294"/><path d="M64 248.902c0 45.179 16.212 86.565 43.124 118.681a186.038 186.038 0 0 0 23.098 23.098c32.116 26.912 73.502 43.124 118.681 43.124 102.119 0 184.902-82.784 184.902-184.902 0-45.179-16.212-86.565-43.124-118.681a186.038 186.038 0 0 0-23.098-23.098C335.468 80.212 294.081 64 248.902 64 146.784 64 64 146.784 64 248.902z" fill="#39394a"/></svg>