<svg xmlns="http://www.w3.org/2000/svg" viewBox="0 0 512 512"><path d="M72 72H24a8 8 0 0 0-8 8v56h56V72zM16 152v56a8 8 0 0 0 8 8h48v-64H16zM144 136V80a8 8 0 0 0-8-8H88v64h56zM88 216h48a8 8 0 0 0 8-8v-56H88v64zM16 344v56a8 8 0 0 0 8 8h48v-64H16zM88 408h48a8 8 0 0 0 8-8v-56H88v64zM72 264H24a8 8 0 0 0-8 8v56h56v-64zM144 328v-56a8 8 0 0 0-8-8H88v64h56z" fill="#5c546a"/><path fill="#888693" d="M72 264v64H16v16h56v64h16v-64h56v-16H88v-80H72zM88 216v-64h56v-16H88V72H72v64H16v16h56v80h16z"/><path d="M88 232H16c-4.422 0-8 3.582-8 8s3.578 8 8 8h160v-16H88zM368 152v56a8 8 0 0 0 8 8h48v-64h-56zM440 216h48a8 8 0 0 0 8-8v-56h-56v64zM424 72h-48a8 8 0 0 0-8 8v56h56V72zM496 136V80a8 8 0 0 0-8-8h-48v64h56zM496 328v-56a8 8 0 0 0-8-8h-48v64h56zM440 408h48a8 8 0 0 0 8-8v-56h-56v64zM368 344v56a8 8 0 0 0 8 8h48v-64h-56zM424 264h-48a8 8 0 0 0-8 8v56h56v-64z" fill="#5c546a"/><path fill="#888693" d="M424 264v64h-56v16h56v64h16v-64h56v-16h-56v-80h-16zM440 216v-64h56v-16h-56V72h-16v64h-56v16h56v80h16z"/><path d="M496 232H336.005l-.003 16H496c4.422 0 8-3.582 8-8s-3.578-8-8-8z" fill="#5c546a"/><path d="M176 376c-4.422 0-8 3.582-8 8s3.578 8 8 8h16v-16h-16zM336 392c4.422 0 8-3.582 8-8s-3.578-8-8-8h-16v16h16z" fill="#888693"/><path d="M288 272h-32v88c13.255 0 24 10.745 24 24s-10.745 24-24 24v88h64V272h-32z" fill="#d5d9de"/><path d="M256 408c-13.255 0-24-10.745-24-24s10.745-24 24-24v-88h-64v224h64v-88z" fill="#b6b8be"/><path d="M192 232h-16v24c0 8.824 7.18 16 16 16v-40zM240 232h16v40h-16zM224 216v-64h-56v44.703c0 8.25 2.813 13.016 8 19.32V216h48zM256 0h-72c-8.82 0-16 7.176-16 16v120h88V0zM240 152h16v64h-16zM208 232h16v40h-16z" fill="#888693"/><path d="M336.008 216c5.109-6.262 7.992-11.18 7.992-19.301V152h-56v64h48v16h-16v40c8.82 0 16-7.176 16-16l.002-8 .003-16 .003-16zM256 152h16v64h-16z" fill="#b6b8be"/><path fill="#b6b8be" d="M288 232h16v40h-16zM256 232h16v40h-16zM344 136V16c0-8.824-7.18-16-16-16h-72v136h88z"/><path d="M256 512h72c4.422 0 8-3.582 8-8s-3.578-8-8-8h-72v16z" fill="#888693"/><path fill="#5c546a" d="M208 232h16v40h16v-40h16v-16h-16v-64h16v-16h-88v16h56v64h-48v16h16v40h16z"/><circle cx="256" cy="384" r="24" fill="#888693"/><path d="M192 496h-8c-4.422 0-8 3.582-8 8s3.578 8 8 8h72v-16h-64z" fill="#5c546a"/><path fill="#888693" d="M320 232h16v-16h-48v-64h56v-16h-88v16h16v64h-16v16h16v40h16v-40h16v40h16z"/></svg>