<svg xmlns="http://www.w3.org/2000/svg" viewBox="0 0 511.969 511.969"><path d="M403.27 206.581l-84.109-84.109a28.26 28.26 0 0 0-3.436 13.939l84.109 84.109a28.26 28.26 0 0 1 3.436-13.939zM428.522 191.833l-84.109-84.109a28.26 28.26 0 0 0-13.939 3.436l84.109 84.109a28.25 28.25 0 0 1 13.939-3.436z" fill="#fff294"/><path d="M399.835 220.52l32.427 32.427c-.334-9.41 1.81-18.329 7.631-24.15 4.879-4.879 11.505-6.901 18.656-6.938l-30.026-30.026a28.26 28.26 0 0 0-13.939 3.436l11.075 11.075a7.998 7.998 0 0 1 0 11.313c-1.563 1.563-3.609 2.344-5.656 2.344s-4.094-.781-5.656-2.344l-11.075-11.075a28.223 28.223 0 0 0-3.437 13.938z" fill="#fff"/><path d="M220.522 399.833l-84.109-84.109a28.26 28.26 0 0 0-13.939 3.436l84.109 84.109a28.25 28.25 0 0 1 13.939-3.436zM195.27 414.581l-84.109-84.109a28.26 28.26 0 0 0-3.436 13.939l84.109 84.109a28.26 28.26 0 0 1 3.436-13.939z" fill="#fff294"/><path d="M206.583 403.268l11.075 11.075a7.996 7.996 0 0 1 0 11.312c-1.563 1.563-3.609 2.344-5.656 2.344s-4.094-.781-5.656-2.344l-11.075-11.075a28.26 28.26 0 0 0-3.436 13.939l32.427 32.427c-.333-9.409 1.81-18.328 7.631-24.149 4.88-4.88 11.506-6.902 18.657-6.938l-30.027-30.027a28.273 28.273 0 0 0-13.94 3.436z" fill="#fff"/><path d="M229.681 298.367L377.03 445.716c-2.802-10.673-4.001-21.588-2.918-31.605l-8.455-8.455c-1.563 1.563-3.609 2.344-5.656 2.344s-4.094-.781-5.656-2.344L230.948 282.259l-8.992 8.992a6.978 6.978 0 0 0-1.98 5.882c3.066-1.804 7.072-1.399 9.705 1.234zM405.658 365.656l8.457 8.457c10.016-1.083 20.931.115 31.603 2.915L298.369 229.68c-2.633-2.633-3.039-6.639-1.234-9.705a6.983 6.983 0 0 0-5.882 1.98l-8.992 8.992 123.397 123.397a7.996 7.996 0 0 1 0 11.312zM346.692 335.378a28.26 28.26 0 0 1 13.939-3.436L218.338 189.648a7.998 7.998 0 0 1 0-11.313l-12.664-12.664c-1.563 1.563-3.609 2.344-5.656 2.344s-4.094-.781-5.656-2.344l-13.948-13.948a28.26 28.26 0 0 0-13.939 3.436l180.217 180.219zM331.944 360.629a28.26 28.26 0 0 1 3.436-13.939L155.161 166.472a28.26 28.26 0 0 0-3.436 13.939l180.219 180.218z" fill="#fff294"/><path d="M414.115 374.113l-8.457-8.457c-1.563 1.563-3.609 2.344-5.656 2.344s-4.094-.781-5.656-2.344l-33.714-33.714a28.26 28.26 0 0 0-13.939 3.436l26.966 26.966a7.998 7.998 0 0 1 0 11.313c-1.562 1.563-3.609 2.344-5.656 2.344s-4.094-.781-5.656-2.344l-26.966-26.966a28.26 28.26 0 0 0-3.436 13.939l33.714 33.714a7.998 7.998 0 0 1 0 11.313l8.455 8.455c1.164-10.768 4.962-20.497 12.232-27.768 7.27-7.269 17-11.066 27.769-12.231z" fill="#fff"/><path d="M58.346 69.656C59.908 71.219 61.955 72 64.002 72s4.094-.781 5.656-2.344a7.998 7.998 0 0 0 0-11.313l-56-56c-3.125-3.125-8.188-3.125-11.313 0s-3.125 8.188 0 11.313l56.001 56z" fill="#ff9300"/><path d="M335.379 346.69l26.966 26.966c1.563 1.563 3.609 2.344 5.656 2.344s4.094-.781 5.656-2.344a7.998 7.998 0 0 0 0-11.313l-26.966-26.966-180.217-180.218-72.832-72.831c-3.125-3.125-8.188-3.125-11.313 0s-3.125 8.188 0 11.313l72.831 72.831L335.379 346.69z" fill="#ffcf00"/><path d="M200.017 168.016a7.97 7.97 0 0 0 5.656-2.344 7.996 7.996 0 0 0 0-11.312l-16.016-16.016c-3.125-3.125-8.188-3.125-11.313 0s-3.125 8.188 0 11.313l2.068 2.068 13.948 13.948a7.984 7.984 0 0 0 5.657 2.343z" fill="#ff9300"/><path d="M218.338 189.648l142.294 142.294 33.714 33.714c1.563 1.563 3.609 2.344 5.656 2.344s4.094-.781 5.656-2.344a7.998 7.998 0 0 0 0-11.313L282.261 230.947l-52.611-52.611a7.996 7.996 0 0 0-11.312 0 7.996 7.996 0 0 0 0 11.312z" fill="#ffcf00"/><path d="M274.353 205.664c1.563 1.563 3.609 2.344 5.656 2.344s4.094-.781 5.656-2.344a7.998 7.998 0 0 0 0-11.313l-8.008-8.008c-3.125-3.125-8.188-3.125-11.313 0s-3.125 8.187 0 11.312l8.009 8.009z" fill="#ff9300"/><path d="M298.369 229.68l147.349 147.349c18.603 4.882 36.467 14.639 47.542 25.714a63.631 63.631 0 0 1 2.168 2.282 7.971 7.971 0 0 0-1.77-2.68L309.681 218.367a7.998 7.998 0 0 0-11.313 0 8.003 8.003 0 0 0-1.234 1.607c-1.804 3.067-1.399 7.072 1.235 9.706z" fill="#ffcf00"/><path d="M200.01 288.008a7.97 7.97 0 0 0 5.656-2.344 7.998 7.998 0 0 0 0-11.313l-8.008-8.008c-3.125-3.125-8.188-3.125-11.313 0s-3.125 8.188 0 11.313l8.008 8.008a7.979 7.979 0 0 0 5.657 2.344z" fill="#ff9300"/><path d="M402.744 493.258c-11.071-11.074-20.829-28.938-25.713-47.541l-147.35-147.35c-2.633-2.633-6.639-3.039-9.705-1.233a8.006 8.006 0 0 0-1.607 1.233 7.996 7.996 0 0 0 0 11.312l183.976 183.977a7.964 7.964 0 0 0 2.679 1.769c-.157-.143-.308-.297-.464-.441a52.53 52.53 0 0 1-1.816-1.726z" fill="#ffcf00"/><path d="M85.658 114.344c-3.125-3.125-8.188-3.125-11.313 0s-3.125 8.188 0 11.313l16.008 16.008c1.563 1.563 3.609 2.344 5.656 2.344s4.094-.781 5.656-2.344a7.998 7.998 0 0 0 0-11.313l-16.007-16.008z" fill="#ff9300"/><path d="M360.002 408a7.97 7.97 0 0 0 5.656-2.344 7.998 7.998 0 0 0 0-11.313l-33.714-33.714-180.218-180.218-26.068-26.068c-3.125-3.125-8.188-3.125-11.313 0s-3.125 8.188 0 11.313l116.603 116.603 123.397 123.397a7.975 7.975 0 0 0 5.657 2.344z" fill="#ffcf00"/><path d="M246.361 49.672c1.563 1.563 3.609 2.344 5.656 2.344s4.094-.781 5.656-2.344a7.998 7.998 0 0 0 0-11.313L221.658 2.344c-3.125-3.125-8.188-3.125-11.313 0s-3.125 8.188 0 11.313l36.016 36.015z" fill="#ff9300"/><path d="M319.161 122.472l84.109 84.109 11.075 11.075c1.563 1.563 3.609 2.344 5.656 2.344s4.094-.781 5.656-2.344a7.998 7.998 0 0 0 0-11.313l-11.075-11.075-84.109-84.109-48.816-48.816c-3.125-3.125-8.188-3.125-11.313 0s-3.125 8.188 0 11.312l48.817 48.817z" fill="#ffcf00"/><path d="M310.338 73.648c1.563 1.563 3.609 2.344 5.656 2.344s4.094-.781 5.656-2.344a7.996 7.996 0 0 0 0-11.312l-39.992-39.992c-3.125-3.125-8.188-3.125-11.313 0s-3.125 8.188 0 11.313l39.993 39.991z" fill="#ff9300"/><path d="M458.548 221.859c14.088-.071 30.222 7.592 39.109 16.484L345.666 86.352c-3.125-3.125-8.188-3.125-11.313 0s-3.125 8.188 0 11.313l10.06 10.06 84.109 84.109 30.026 30.025z" fill="#ffcf00"/><path d="M276.002 116a7.97 7.97 0 0 0 5.656-2.344 7.998 7.998 0 0 0 0-11.313l-36-36c-3.125-3.125-8.188-3.125-11.313 0s-3.125 8.187 0 11.312l36 36a7.971 7.971 0 0 0 5.657 2.345z" fill="#ff9300"/><path d="M432.261 252.947l-32.427-32.427-84.109-84.109-10.083-10.083c-3.125-3.125-8.188-3.125-11.313 0s-3.125 8.188 0 11.313l148.016 148.016a7.99 7.99 0 0 0 1.528 1.187c-6.383-8.137-11.17-21.444-11.612-33.897z" fill="#ffcf00"/><path d="M44.017 260.016a7.97 7.97 0 0 0 5.656-2.344 7.998 7.998 0 0 0 0-11.313l-36.016-36.016c-3.125-3.125-8.188-3.125-11.313 0s-3.125 8.188 0 11.313l36.016 36.016a7.982 7.982 0 0 0 5.657 2.344z" fill="#ff9300"/><path d="M206.345 425.656c1.563 1.563 3.609 2.344 5.656 2.344s4.094-.781 5.656-2.344a7.996 7.996 0 0 0 0-11.312l-11.075-11.075-84.109-84.109-48.816-48.816c-3.125-3.125-8.188-3.125-11.313 0s-3.125 8.188 0 11.313l48.816 48.816 84.109 84.109 11.076 11.074z" fill="#ffcf00"/><path d="M62.346 230.344a7.998 7.998 0 0 0 0 11.313l39.992 39.992c1.563 1.563 3.609 2.344 5.656 2.344s4.094-.781 5.656-2.344a7.998 7.998 0 0 0 0-11.313l-39.992-39.992a7.996 7.996 0 0 0-11.312 0z" fill="#ff9300"/><path d="M250.549 429.86c14.088-.071 30.221 7.592 39.109 16.484l.018.019-.018-.02-151.992-151.992c-3.125-3.125-8.188-3.125-11.313 0s-3.125 8.188 0 11.313l10.06 10.06 84.109 84.109 30.027 30.027z" fill="#ffcf00"/><path d="M37.658 274.344c-3.125-3.125-8.188-3.125-11.313 0s-3.125 8.188 0 11.313l36 36c1.563 1.563 3.609 2.344 5.656 2.344s4.094-.781 5.656-2.344a7.998 7.998 0 0 0 0-11.313l-35.999-36z" fill="#ff9300"/><path d="M224.261 460.947l-32.427-32.427-84.109-84.109-10.083-10.083c-3.125-3.125-8.188-3.125-11.313 0s-3.125 8.188 0 11.313l148.016 148.016c.468.468.984.858 1.527 1.186-6.383-8.137-11.17-21.444-11.611-33.896z" fill="#ffcf00"/><path d="M495.427 405.024a65.365 65.365 0 0 0-2.168-2.282c2.891 2.892 5.411 6.013 7.631 9.276-9.672-6.986-20.901-11.012-32.392-11.85-16.302-1.189-33.062 3.905-46.388 15.574-24.266 21.256-28.834 57.068-12.114 83.663-1.864-1.379-3.689-2.835-5.437-4.421.156.145.307.298.464.441 12.158 11.029 27.567 16.543 42.977 16.543 16.391 0 32.781-6.234 45.258-18.711 24.201-24.206 24.921-63.145 2.169-88.233z" fill="#d49e6c"/><path d="M445.718 377.028c-10.672-2.801-21.587-3.998-31.603-2.915-10.769 1.164-20.499 4.962-27.769 12.231-7.27 7.27-11.068 16.999-12.232 27.768-1.083 10.017.116 20.932 2.918 31.605 4.884 18.603 14.642 36.467 25.713 47.541a52.562 52.562 0 0 0 1.816 1.727c1.748 1.587 3.573 3.042 5.437 4.421-16.72-26.595-12.151-62.407 12.114-83.663 13.326-11.669 30.086-16.763 46.388-15.574 11.491.838 22.72 4.864 32.392 11.85-2.221-3.264-4.74-6.384-7.631-9.276-11.076-11.075-28.94-20.833-47.543-25.715z" fill="#b68052"/><path d="M497.752 246.2c-9.088-4.808-19.723-6.673-29.434-4.281-19.419 4.777-30.337 25.417-23.359 44.158a46.99 46.99 0 0 0 1.604 3.755c-.067-.066-.151-.108-.218-.175 6.836 6.836 16.242 10.25 25.656 10.25s18.82-3.414 25.656-10.25c13.194-13.187 13.651-35.982 1.379-49.84 3.07 3.498 5.269 7.583 6.744 11.912-2.494-2.082-5.137-4-8.028-5.529zM497.658 238.344z" fill="#d49e6c"/><path d="M458.548 221.859c-7.151.036-13.777 2.058-18.656 6.938-5.821 5.821-7.965 14.74-7.631 24.15.442 12.453 5.228 25.76 11.612 33.896a31.32 31.32 0 0 0 2.472 2.813c.067.067.15.109.218.175a46.99 46.99 0 0 1-1.604-3.755c-6.979-18.741 3.94-39.381 23.359-44.158 9.711-2.392 20.346-.526 29.434 4.281 2.891 1.529 5.534 3.447 8.029 5.529-1.475-4.33-3.674-8.414-6.744-11.912l-.01-.012a30.292 30.292 0 0 0-1.369-1.46c-8.887-8.893-25.022-16.556-39.11-16.485z" fill="#b68052"/><path d="M297.781 459.729c-2.495-2.082-5.138-4-8.029-5.529-9.088-4.808-19.723-6.673-29.434-4.281-19.419 4.777-30.337 25.417-23.359 44.158a46.99 46.99 0 0 0 1.604 3.755c-.067-.066-.151-.108-.218-.175 6.836 6.836 16.242 10.25 25.656 10.25 9.414 0 18.82-3.414 25.656-10.25 13.194-13.187 13.651-35.982 1.379-49.84 3.071 3.498 5.27 7.582 6.745 11.912zM291.027 447.805a32.68 32.68 0 0 0-1.351-1.441l-.018-.019c.474.474.93.961 1.369 1.46z" fill="#d49e6c"/><path d="M236.959 494.077c-6.979-18.741 3.94-39.381 23.359-44.158 9.711-2.392 20.346-.526 29.434 4.281 2.891 1.529 5.534 3.447 8.029 5.529-1.475-4.33-3.674-8.414-6.744-11.912l-.01-.012a30.292 30.292 0 0 0-1.369-1.46c-8.887-8.892-25.021-16.555-39.109-16.484-7.151.036-13.777 2.058-18.657 6.938-5.821 5.821-7.965 14.74-7.631 24.149.441 12.453 5.228 25.759 11.611 33.895a31.518 31.518 0 0 0 2.473 2.815c.067.067.15.109.218.175a47.007 47.007 0 0 1-1.604-3.756z" fill="#b68052"/></svg>