<svg xmlns="http://www.w3.org/2000/svg" viewBox="0 0 512 512"><path d="M418.999 150.939l16.313-16.313a8 8 0 0 0 0-11.314l-22.624-22.624a8 8 0 0 0-11.314 0l-16.313 16.313a209.8 209.8 0 0 1 33.938 33.938z" fill="#b6b8be"/><path fill="#d5d9de" d="M384 312h80v40h-80zM368 286.855C368 168.383 317.758 72 256 72v224h112v-9.145zM256 312h112v40H256z"/><path d="M260.701 72.06c.514.012 1.026.027 1.539.042-.513-.016-1.026-.031-1.539-.042zM271.051 72.549zM265.438 72.223c.583.027 1.166.048 1.748.079-.582-.03-1.166-.052-1.748-.079zM314.004 80.291C355.859 117.837 384 195.304 384 286.855V296h80v-16c0-48.718-16.842-93.572-45.001-129.061a209.834 209.834 0 0 0-33.937-33.938 208.078 208.078 0 0 0-51.814-30.119 206.41 206.41 0 0 0-58.263-14.007 207.97 207.97 0 0 1 39.019 7.416z" fill="#d5d9de"/><path fill="#b6b8be" d="M144 312h112v40H144zM128 286.855c0-91.551 28.141-169.018 69.996-206.565a207.883 207.883 0 0 1 39.02-7.415C131.186 82.496 48 171.709 48 280v16h80v-9.145zM48 312h80v40H48zM249.76 72.102zM244.815 72.303c.581-.031 1.165-.053 1.748-.079-.583.026-1.167.048-1.748.079zM237.789 72.806c1.051-.093 2.104-.181 3.159-.258-1.055.076-2.107.167-3.159.258z"/><path d="M256 72c-61.758 0-112 96.383-112 214.855V296h112V72zM384 286.855c0-91.551-28.141-169.018-69.996-206.565a207.883 207.883 0 0 0-39.02-7.415l-.774-.069a205.044 205.044 0 0 0-7.025-.504c-.581-.031-1.165-.053-1.748-.079a199.187 199.187 0 0 0-4.737-.164A209.685 209.685 0 0 0 256 72c61.758 0 112 96.383 112 214.855V296H256v16h112v40h16v-40h80v-16h-80v-9.145z" fill="#b6b8be"/><path d="M216 400c0-8.824 7.18-16 16-16h48c8.82 0 16 7.176 16 16v48h184v-88c0-4.418-3.578-8-8-8H144v-40h112v-16H144v-9.145C144 168.383 194.242 72 256 72c1.572 0 3.138.024 4.701.06.514.011 1.026.027 1.539.042 1.068.032 2.134.073 3.198.122.583.026 1.166.048 1.748.079 1.292.07 2.58.152 3.866.246 1.056.076 2.108.166 3.159.258l.774.069a206.367 206.367 0 0 1 58.263 14.007l5.874-14.685c1.667-4.168-.383-8.985-4.607-10.506C309.99 52.857 283.568 48 256 48 130.612 48 28.456 147.472 24.142 271.81c-.156 4.486 3.551 8.19 8.04 8.19H48c0-108.291 83.186-197.503 189.016-207.125a207.883 207.883 0 0 0-39.02 7.415C156.141 117.837 128 195.304 128 286.855V296H48v16h80v40H40c-4.422 0-8 3.582-8 8v88h184v-48zm24.949-327.451zm10.35-.489c-.514.012-1.026.027-1.539.042a157.22 157.22 0 0 1 1.539-.042zm-4.737.163c-.583.027-1.166.048-1.748.079.582-.03 1.166-.052 1.748-.079zM368 424c0 4.418-3.578 8-8 8h-32c-4.422 0-8-3.582-8-8v-32c0-4.418 3.578-8 8-8h32c4.422 0 8 3.582 8 8v32zm72 0c0 4.418-3.578 8-8 8h-32c-4.422 0-8-3.582-8-8v-32c0-4.418 3.578-8 8-8h32c4.422 0 8 3.582 8 8v32zm-320 0c0 4.418-3.578 8-8 8H80c-4.422 0-8-3.582-8-8v-32c0-4.418 3.578-8 8-8h32c4.422 0 8 3.582 8 8v32zm64 8h-32c-4.422 0-8-3.582-8-8v-32c0-4.418 3.578-8 8-8h32c4.422 0 8 3.582 8 8v32c0 4.418-3.578 8-8 8z" fill="#888693"/><path d="M504 448H296v-48c0-8.824-7.18-16-16-16h-48c-8.82 0-16 7.176-16 16v48H8c-4.422 0-8 3.582-8 8s3.578 8 8 8h496c4.422 0 8-3.582 8-8s-3.578-8-8-8z" fill="#5c546a"/><path d="M184 384h-32c-4.422 0-8 3.582-8 8v32c0 4.418 3.578 8 8 8h32c4.422 0 8-3.582 8-8v-32c0-4.418-3.578-8-8-8zM112 384H80c-4.422 0-8 3.582-8 8v32c0 4.418 3.578 8 8 8h32c4.422 0 8-3.582 8-8v-32c0-4.418-3.578-8-8-8zM432 384h-32c-4.422 0-8 3.582-8 8v32c0 4.418 3.578 8 8 8h32c4.422 0 8-3.582 8-8v-32c0-4.418-3.578-8-8-8zM360 384h-32c-4.422 0-8 3.582-8 8v32c0 4.418 3.578 8 8 8h32c4.422 0 8-3.582 8-8v-32c0-4.418-3.578-8-8-8z" fill="#5c546a"/></svg>