<svg xmlns="http://www.w3.org/2000/svg" viewBox="0 0 496 496"><path d="M416 247.647v.078" fill="none"/><path d="M115.218 108.547c.336.218.666.443.991.675l.071.051c.335.24.664.487.988.741l.038.03c.331.261.656.529.975.804l.015.013c.324.281.642.568.953.863a28.243 28.243 0 0 1 2.333 2.485c.35.045.702.076 1.058.076 1.836 0 3.602-.559 5.117-1.84 3.438-2.801 3.844-7.84 1.039-11.281-2.797-3.359-7.836-3.84-11.281-1.039a8.155 8.155 0 0 0-2.597 8.232l.19.122c.038.022.074.044.11.068zM68.719 180.287a7.962 7.962 0 0 0-10.242 4.875c-1.438 4.242.805 8.719 4.961 10.242.883.242 1.758.398 2.641.398 3.281 0 6.398-2.078 7.523-5.359 1.437-4.156-.727-8.718-4.883-10.156zM142 92.045c1.438 2.637 4.156 4.078 6.961 4.078 1.281 0 2.719-.32 3.914-1.039 3.844-2.242 5.203-7.121 2.961-10.961-2.156-3.84-7.039-5.121-10.875-2.961-3.844 2.161-5.203 7.043-2.961 10.883zM85.823 156.188a27.85 27.85 0 0 1-2.001-1.297l-.159-.113a25.746 25.746 0 0 1-.838-.628l-.186-.146a26.988 26.988 0 0 1-.787-.646l-.198-.171a27.6 27.6 0 0 1-.743-.667c-.068-.063-.133-.127-.2-.191-.24-.228-.477-.458-.708-.694-.062-.063-.122-.129-.184-.193a28.03 28.03 0 0 1-.687-.735l-.026-.028c-2.784.033-5.486 1.49-6.948 4.085-2.156 3.84-.797 8.719 3.125 10.883 1.195.719 2.555 1.039 3.836 1.039 2.805 0 5.523-1.523 7.039-4.164a8.046 8.046 0 0 0 .741-5.731c-.36-.191-.714-.391-1.064-.596l-.012-.007zM57.039 226.686c.398.078.797.156 1.203.156 3.914 0 7.273-2.797 7.914-6.797.719-4.32-2.234-8.484-6.641-9.125-4.32-.719-8.477 2.242-9.117 6.641-.718 4.32 2.243 8.484 6.641 9.125zM105.68 374.045c3.359-2.883 3.68-7.922.797-11.281-2.875-3.359-7.922-3.758-11.281-.883-3.359 2.883-3.68 7.922-.797 11.281 1.523 1.844 3.758 2.805 6 2.805a8.263 8.263 0 0 0 5.281-1.922zM81.758 350.045c1.438 0 2.797-.398 4.078-1.125 3.844-2.32 5.039-7.195 2.805-10.953-2.242-3.844-7.203-5.125-10.961-2.805-3.844 2.242-5.039 7.125-2.805 10.961 1.523 2.477 4.164 3.922 6.883 3.922zM56.078 258.686c4.477-.086 8-3.68 7.922-8.086-.078-4.477-3.68-8-8.078-7.914-4.484.078-8 3.68-7.922 8.078s3.68 7.922 8 7.922h.078zM75.359 310.365a8.088 8.088 0 0 0-10.32-4.641c-4.164 1.602-6.242 6.242-4.641 10.32 1.203 3.195 4.242 5.195 7.438 5.195.961 0 1.922-.156 2.883-.555 4.078-1.522 6.156-6.162 4.64-10.319zM59.195 290.443c.484 0 .961 0 1.523-.078 4.32-.883 7.203-5.039 6.398-9.359-.875-4.32-5.039-7.203-9.359-6.406-4.398.805-7.203 5.047-6.398 9.367.719 3.836 4.079 6.476 7.836 6.476zM170.398 77.483c1.203 3.281 4.242 5.281 7.602 5.281a7.72 7.72 0 0 0 2.641-.48c4.156-1.441 6.32-6.078 4.875-10.238-1.516-4.16-6.078-6.32-10.234-4.801-4.165 1.437-6.321 6.078-4.884 10.238zM405.359 187.725c1.195 3.195 4.242 5.281 7.516 5.281a7.84 7.84 0 0 0 2.727-.484c4.156-1.516 6.32-6.156 4.797-10.32-1.523-4.156-6.078-6.234-10.242-4.719-4.157 1.523-6.321 6.078-4.798 10.242zM375.836 123.725c-3.359 2.801-3.758 7.918-.961 11.277 1.602 1.84 3.844 2.883 6.164 2.883 1.758 0 3.602-.641 5.117-1.922 3.359-2.801 3.844-7.84.961-11.281h.078c-2.875-3.359-7.914-3.84-11.359-.957zM352.32 102.123c-2.883 3.359-2.398 8.402.961 11.281 1.516 1.199 3.359 1.84 5.195 1.84 2.242 0 4.484-.961 6.078-2.879 2.883-3.363 2.406-8.402-.953-11.281a8.008 8.008 0 0 0-11.281 1.039zM420 287.404c.398.078.875.078 1.359.078 3.758 0 7.117-2.719 7.836-6.641.727-4.32-2.156-8.477-6.477-9.195-4.398-.805-8.563 2.156-9.281 6.477-.718 4.399 2.164 8.477 6.563 9.281zM422.555 223.725c4.32-.805 7.281-4.961 6.484-9.281-.719-4.32-4.883-7.281-9.281-6.477-4.32.797-7.203 4.875-6.477 9.273.719 3.844 4.078 6.563 7.914 6.563.406 0 .883 0 1.36-.078zM200.961 68.045c.719 3.84 4.078 6.637 7.914 6.637.484 0 .883-.078 1.367-.078 4.313-.801 7.273-4.961 6.555-9.281-.797-4.32-4.875-7.277-9.281-6.559-4.321.801-7.274 4.879-6.555 9.281zM325.437 84.842a7.984 7.984 0 0 0 2.883 10.961v-.078c1.195.801 2.641 1.117 4 1.117 2.719 0 5.438-1.438 6.875-4 2.242-3.758.961-8.637-2.875-10.879-3.844-2.238-8.719-.961-10.883 2.879zM232.719 64.045c0 4.398 3.602 8 8 8s8-3.602 8-8c0-4.402-3.523-8-7.922-8-4.477 0-8 3.52-8.078 8zM264.719 65.483c-.797 4.402 2.078 8.48 6.477 9.281.406.078.883.16 1.359.16 3.844 0 7.203-2.719 7.922-6.641.719-4.32-2.156-8.48-6.477-9.281-4.399-.718-8.563 2.16-9.281 6.481zM295.922 72.526c-1.523 4.156.555 8.719 4.719 10.238.961.32 1.836.48 2.797.48 3.203 0 6.32-2 7.438-5.199 1.523-4.16-.555-8.801-4.719-10.32-4.157-1.52-8.72.641-10.235 4.801zM424 239.647c-4.484 0-8 3.594-8 8 0 4.477 3.602 8 8 8s8-3.602 8-8c0-4.407-3.602-8-8-8zM399.359 164.045a7.894 7.894 0 0 0 4-1.125c3.836-2.156 5.117-7.117 2.961-10.875-2.242-3.84-7.125-5.203-10.961-2.961a7.99 7.99 0 0 0-2.883 10.961c1.446 2.555 4.164 4 6.883 4zM386.64 359.482c-3.445-2.883-8.484-2.398-11.281 1.039-2.805 3.359-2.32 8.398 1.039 11.281 1.523 1.203 3.281 1.844 5.117 1.844 2.32 0 4.563-1.047 6.164-2.883 2.797-3.437 2.321-8.476-1.039-11.281zM301.359 413.084c-4.164 1.516-6.32 6.078-4.719 10.242 1.195 3.195 4.234 5.195 7.516 5.195.883 0 1.844-.156 2.719-.477 4.164-1.523 6.242-6.164 4.727-10.242-1.524-4.155-6.086-6.32-10.243-4.718zM420.64 313.084c1.516-4.164-.641-8.719-4.805-10.242-4.156-1.438-8.719.641-10.234 4.805-1.445 4.156.641 8.797 4.797 10.234.961.32 1.844.484 2.719.484 3.281 0 6.398-2 7.523-5.281zM241.437 424.045c-4.398 0-8 3.68-7.922 8.078 0 4.398 3.602 7.922 8 7.922h.086c4.398-.078 7.914-3.68 7.914-8.078-.078-4.406-3.679-8-8.078-7.922zM395.758 346.287c1.281.719 2.641 1.117 4 1.117a7.85 7.85 0 0 0 6.883-4.078h.078c2.156-3.766.797-8.727-3.039-10.883-3.844-2.242-8.719-.883-10.883 2.961-2.242 3.836-.875 8.719 2.961 10.883zM181.359 414.045c-4.164-1.523-8.719.719-10.164 4.875-1.516 4.164.727 8.727 4.883 10.242.883.242 1.758.398 2.641.398 3.281 0 6.398-2 7.523-5.359 1.516-4.078-.726-8.719-4.883-10.156zM129.438 395.326c2.805-3.359 2.32-8.406-1.117-11.203-3.359-2.797-8.398-2.32-11.203 1.117-2.797 3.359-2.32 8.406 1.039 11.203v.078a8.276 8.276 0 0 0 5.125 1.766c2.32 0 4.554-.961 6.156-2.961zM271.836 421.162c-4.32.805-7.195 4.961-6.398 9.281.719 3.844 4.078 6.563 7.922 6.563.398 0 .883 0 1.359-.086 4.398-.875 7.281-5.039 6.477-9.359-.798-4.321-4.954-7.196-9.36-6.399zM328.961 399.967a7.975 7.975 0 0 0-2.883 10.953c1.523 2.484 4.164 3.922 6.883 3.922 1.438 0 2.797-.32 4.078-1.117 3.758-2.242 5.117-7.125 2.883-10.883-2.242-3.836-7.203-5.117-10.961-2.875zM153.602 401.404c-3.844-2.164-8.805-.805-10.961 3.039-2.164 3.844-.805 8.719 3.039 10.883a8.016 8.016 0 0 0 3.922 1.039 8.107 8.107 0 0 0 7.039-4.078c2.156-3.844.796-8.726-3.039-10.883zM210.961 421.647c-4.406-.727-8.484 2.234-9.203 6.555-.719 4.398 2.242 8.563 6.563 9.281.477.078.875.078 1.359.078 3.836 0 7.195-2.797 7.836-6.719.726-4.32-2.235-8.477-6.555-9.195zM353.836 382.287v-.086c-3.359 2.883-3.758 7.922-.875 11.281 1.516 1.922 3.836 2.883 6.078 2.883a8.07 8.07 0 0 0 5.203-1.922c3.359-2.883 3.758-7.922.875-11.281-2.875-3.359-7.922-3.758-11.281-.875zM274.555 108.205c-4.313-1.043-8.633 1.598-9.68 5.84-1.039 4.32 1.602 8.637 5.844 9.68.641.16 1.281.238 1.922.238 3.602 0 6.875-2.398 7.758-6.078 1.038-4.242-1.602-8.641-5.844-9.68zM150.961 156.045c3.195-3.043 3.281-8.16.234-11.281-3.117-3.199-8.156-3.281-11.359-.16v-.078c-3.195 3.117-3.281 8.156-.156 11.359a8.068 8.068 0 0 0 5.758 2.48c1.999.001 3.999-.8 5.523-2.32zM289.281 382.842c.961 0 1.914-.156 2.875-.555a7.941 7.941 0 0 0 4.563-10.32 7.941 7.941 0 0 0-10.32-4.563 7.954 7.954 0 0 0-4.563 10.32c1.203 3.196 4.242 5.118 7.445 5.118zM137.359 345.24c1.836 0 3.68-.641 5.195-1.914a8.077 8.077 0 0 0 .805-11.359c-2.883-3.281-7.922-3.68-11.281-.727-3.359 2.883-3.68 7.922-.797 11.281a8.225 8.225 0 0 0 6.078 2.719zM204.555 124.682c.727 0 1.445-.078 2.086-.238 4.32-1.199 6.797-5.602 5.68-9.84-1.125-4.238-5.523-6.801-9.844-5.602-4.234 1.121-6.797 5.523-5.602 9.762a7.927 7.927 0 0 0 7.68 5.918zM172.875 137.725c1.367 0 2.641-.32 3.922-1.043 3.844-2.156 5.203-7.039 3.039-10.879-2.234-3.84-7.117-5.199-10.961-3.039-3.836 2.238-5.195 7.121-2.953 10.961 1.437 2.558 4.156 4 6.953 4zM130.797 181.241c2.32-3.758 1.125-8.719-2.641-10.953-3.836-2.32-8.719-1.203-11.039 2.633-2.32 3.766-1.117 8.641 2.641 10.961a7.8 7.8 0 0 0 4.164 1.203c2.719-.001 5.359-1.36 6.875-3.844zM238.641 120.045c4.398 0 8-3.68 7.914-8.082 0-4.398-3.68-7.918-8.078-7.918-4.398.078-7.922 3.68-7.922 8.078.086 4.402 3.602 7.922 8 7.922h.086zM308.476 121.323h-.078c-3.844-2.078-8.719-.641-10.797 3.203-2.086 3.918-.641 8.797 3.195 10.879a8.285 8.285 0 0 0 3.844.961c2.797 0 5.602-1.523 7.039-4.16 2.079-3.923.641-8.801-3.203-10.883zM103.758 250.123c.164.078.242.078.32.078 4.32 0 7.844-3.438 8-7.68.242-4.398-3.203-8.156-7.602-8.398-4.398-.156-8.156 3.281-8.398 7.68h.078c-.234 4.398 3.203 8.164 7.602 8.32zM359.601 313.404a8.21 8.21 0 0 0 3.359.719c3.039 0 5.914-1.68 7.281-4.563a8.05 8.05 0 0 0-3.844-10.641c-4-1.914-8.719-.156-10.641 3.844-1.92 3.923-.155 8.719 3.845 10.641zM361.68 208.123c1.039 3.359 4.156 5.523 7.516 5.523.883 0 1.68-.164 2.563-.406 4.164-1.359 6.484-5.914 5.117-10.078-1.438-4.242-5.914-6.477-10.156-5.117a7.898 7.898 0 0 0-5.04 10.078zM383.68 238.842v-.078c-.242-4.398-4.078-7.758-8.484-7.438-4.398.234-7.758 4.078-7.438 8.477.242 4.242 3.758 7.523 7.922 7.523.242 0 .398 0 .563-.086 4.397-.234 7.757-4 7.437-8.398zM373.601 281.561c3.758 0 7.117-2.719 7.836-6.555.883-4.32-2-8.484-6.32-9.359-4.398-.805-8.563 2.078-9.359 6.398s2 8.555 6.398 9.359c.484.079.961.157 1.445.157zM358.797 181.405c3.758-2.398 4.805-7.359 2.484-11.117v.078c-2.406-3.766-7.359-4.805-11.125-2.484-3.68 2.406-4.719 7.359-2.398 11.125 1.523 2.32 4.078 3.68 6.719 3.68 1.523-.001 3.038-.486 4.32-1.282zM338.398 329.881v.086c-2.883 3.359-2.398 8.398 1.039 11.195 1.438 1.281 3.281 1.922 5.117 1.922 2.242 0 4.563-1.039 6.086-2.883 2.875-3.438 2.398-8.477-.961-11.281-3.437-2.875-8.484-2.398-11.281.961zM106.961 284.365c.555 0 1.039-.078 1.594-.164 4.406-.961 7.125-5.195 6.242-9.516-.961-4.32-5.195-7.125-9.516-6.164-4.32.883-7.125 5.125-6.164 9.523a8.046 8.046 0 0 0 7.844 6.321zM185.836 373.084c-1.516 4.156.641 8.719 4.805 10.242.875.398 1.836.555 2.719.555 3.281 0 6.32-2.078 7.516-5.281 1.523-4.156-.633-8.797-4.719-10.234-4.157-1.524-8.798.554-10.321 4.718zM109.836 216.365c3.445 0 6.641-2.242 7.68-5.68a8.022 8.022 0 0 0-5.359-10c-4.156-1.281-8.641 1.117-9.914 5.359-1.281 4.156 1.039 8.641 5.273 10 .804.157 1.601.321 2.32.321zM326.641 142.924c-3.039 3.199-2.805 8.32.398 11.281a7.954 7.954 0 0 0 5.438 2.16c2.164 0 4.32-.883 5.844-2.563 3.039-3.277 2.875-8.32-.398-11.277-3.204-3.042-8.322-2.882-11.282.399zM118.242 316.764c1.195 0 2.477-.32 3.594-.883 3.922-2 5.523-6.797 3.602-10.719-2-3.922-6.797-5.602-10.719-3.602-4 2-5.602 6.805-3.602 10.727 1.36 2.797 4.242 4.477 7.125 4.477zM263.969 382.83c.006.112.005.227.009.339a7.67 7.67 0 0 0-.009-.339zM314.719 351.967c-3.523 2.555-4.398 7.594-1.758 11.117 1.516 2.242 4 3.359 6.477 3.359 1.602 0 3.281-.477 4.641-1.523 3.602-2.555 4.398-7.594 1.844-11.117-2.564-3.602-7.603-4.399-11.204-1.836zM156.32 355.561c-2.484 3.602-1.602 8.641 2.078 11.125a7.83 7.83 0 0 0 4.477 1.438c2.563 0 5.047-1.203 6.641-3.523 2.484-3.594 1.602-8.555-2.078-11.117-3.602-2.478-8.641-1.603-11.118 2.077zM24.078 308.045c-1.117-4.242-5.523-6.805-9.836-5.602-4.242 1.203-6.727 5.602-5.523 9.844.961 3.516 4.156 5.914 7.68 5.914.719 0 1.438-.156 2.156-.32 4.242-1.195 6.726-5.594 5.523-9.836zM228.477 24.283h.398c4.406-.16 7.844-3.918 7.602-8.32a7.857 7.857 0 0 0-8.32-7.598c-4.477.16-7.836 3.918-7.68 8.316a8.004 8.004 0 0 0 8 7.602zM373.758 68.284c1.359 1.121 3.039 1.602 4.719 1.602a8.144 8.144 0 0 0 6.484-3.203c2.555-3.52 1.836-8.559-1.68-11.199-3.523-2.641-8.563-1.918-11.203 1.602-2.641 3.596-1.922 8.639 1.68 11.198zM196.797 28.045c.484 0 .961 0 1.445-.16 4.313-.801 7.195-4.961 6.398-9.281-.805-4.398-5.039-7.199-9.359-6.398-4.32.797-7.203 5.039-6.406 9.359.727 3.84 4.086 6.48 7.922 6.48zM34.398 337.162c-1.758-4.078-6.477-5.922-10.477-4.156-4.086 1.758-5.922 6.477-4.164 10.477 1.281 3.039 4.242 4.883 7.281 4.883 1.117 0 2.156-.242 3.203-.719 4.079-1.766 5.915-6.485 4.157-10.485zM317.836 458.123c-4.156 1.523-6.234 6.164-4.719 10.32a8.023 8.023 0 0 0 7.523 5.203c.875 0 1.836-.164 2.797-.484 4.078-1.602 6.242-6.156 4.719-10.32-1.515-4.156-6.156-6.242-10.32-4.719zM226.797 471.647c-4.398-.242-8.156 3.117-8.398 7.516s3.117 8.242 7.523 8.484h.398c4.234 0 7.758-3.281 8-7.523.235-4.399-3.125-8.243-7.523-8.477zM347.758 51.643a8.285 8.285 0 0 0 3.844.961c2.797 0 5.594-1.52 7.039-4.16 2.078-3.84.719-8.719-3.125-10.801-3.914-2.16-8.797-.801-10.875 3.121-2.165 3.84-.719 8.719 3.117 10.879zM257.68 471.326c-4.398.398-7.68 4.234-7.281 8.641.242 4.156 3.758 7.359 7.922 7.359h.641c4.398-.406 7.68-4.242 7.359-8.641s-4.243-7.679-8.641-7.359zM9.195 223.006c.406.078.727.078 1.125.078 3.922 0 7.359-2.883 7.922-6.883.633-4.398-2.406-8.398-6.805-9.039s-8.398 2.398-9.039 6.805c-.64 4.32 2.399 8.398 6.797 9.039zM7.922 254.92c4.477 0 8.078-3.516 8.078-7.914 0-4.484-3.523-8-7.922-8.086-4.477 0-8.078 3.602-8.078 8 0 4.406 3.516 8 7.922 8zM11.039 286.764c4.398-.563 7.516-4.562 6.883-8.961-.563-4.398-4.563-7.438-8.961-6.883-4.406.563-7.445 4.563-6.883 8.961.563 4.086 4 6.961 7.922 6.961.398 0 .719 0 1.039-.078zM424 114.682c1.68 0 3.359-.559 4.797-1.68 3.523-2.719 4.164-7.758 1.523-11.199-2.719-3.52-7.766-4.16-11.281-1.52-3.438 2.719-4.078 7.762-1.438 11.281 1.594 2.001 3.914 3.118 6.399 3.118zM37.68 361.881c-3.844 2.32-5.039 7.203-2.719 10.961 1.516 2.484 4.156 3.844 6.875 3.844 1.359 0 2.805-.32 4.164-1.125 3.758-2.32 4.961-7.273 2.641-11.039-2.321-3.758-7.203-4.961-10.961-2.641zM402.797 90.682c2 0 4.078-.797 5.68-2.316 3.039-3.203 3.039-8.242-.078-11.363a8.064 8.064 0 0 0-11.359.082 8.068 8.068 0 0 0 .078 11.359c1.601 1.519 3.601 2.238 5.679 2.238zM346 445.404c-3.922 2.078-5.359 6.961-3.281 10.883 1.438 2.633 4.242 4.156 7.117 4.156 1.203 0 2.563-.32 3.766-.961 3.836-2.078 5.359-6.961 3.195-10.797-2.078-3.921-6.961-5.359-10.797-3.281zM111.602 431.647c-3.602-2.563-8.563-1.68-11.125 1.914-2.555 3.68-1.68 8.641 2 11.203a7.895 7.895 0 0 0 4.563 1.438c2.477 0 4.961-1.195 6.563-3.438 2.553-3.602 1.592-8.563-2.001-11.117zM372.078 428.92c-3.523 2.641-4.32 7.602-1.68 11.203 1.523 2.164 4 3.281 6.398 3.281 1.68 0 3.281-.484 4.719-1.523 3.602-2.641 4.406-7.68 1.766-11.195-2.641-3.602-7.601-4.321-11.203-1.766zM441.68 141.244c1.359 0 2.719-.32 3.922-1.039 3.836-2.16 5.195-7.043 3.039-10.883-2.242-3.84-7.125-5.199-10.961-2.957-3.844 2.16-5.203 7.039-2.961 10.879 1.437 2.559 4.156 4 6.961 4zM457.515 194.444c.883 3.68 4.242 6.078 7.844 6.078.563 0 1.195-.078 1.836-.234a8.02 8.02 0 0 0 5.922-9.688c-1.117-4.234-5.438-6.875-9.68-5.836a8.009 8.009 0 0 0-5.922 9.68zM138.078 447.561c-3.922-2-8.797-.477-10.797 3.445-2 3.914-.484 8.797 3.516 10.797 1.125.563 2.398.883 3.602.883 2.883 0 5.68-1.602 7.117-4.398 2-3.923.484-8.727-3.438-10.727zM448.156 165.084h-.078c1.281 3.117 4.32 5.039 7.438 5.039 1.039 0 2-.242 2.961-.563 4.164-1.68 6.164-6.32 4.484-10.477-1.602-4.082-6.242-6.082-10.406-4.402-4.079 1.602-6.079 6.239-4.399 10.403zM55.281 388.6c-3.445 2.805-4 7.844-1.203 11.281 1.602 1.922 3.922 2.883 6.242 2.883a8.096 8.096 0 0 0 5.039-1.758c3.438-2.805 3.922-7.844 1.117-11.281-2.796-3.438-7.835-3.922-11.195-1.125zM14.797 191.483c.719.242 1.445.32 2.164.32 3.516 0 6.719-2.242 7.758-5.758 1.203-4.242-1.281-8.719-5.523-9.922-4.234-1.203-8.641 1.203-9.914 5.523-1.204 4.235 1.273 8.641 5.515 9.837zM259.758 24.924h.719c4.078 0 7.602-3.121 8-7.281.32-4.398-2.875-8.32-7.281-8.641a8.002 8.002 0 0 0-8.719 7.281c-.399 4.321 2.882 8.243 7.281 8.641zM473.213 224.076c.148.007.295.022.442.033.251.017.502.032.751.057.188.019.372.046.559.069.206.025.413.048.617.078.209.031.416.071.623.108.176.031.354.059.529.094.228.046.452.099.677.151.151.035.303.067.453.104.241.061.479.129.717.196.043.012.087.023.13.036a8.029 8.029 0 0 0 .009-1.761c-.477-4.398-4.398-7.594-8.719-7.117-4.484.398-7.602 4.32-7.203 8.719.032.331.092.652.164.97a23.912 23.912 0 0 1 9.039-1.766c.406-.002.81.009 1.212.029zM466.797 297.881c-4.32-1.117-8.641 1.445-9.758 5.766-1.117 4.234 1.516 8.641 5.758 9.68.719.234 1.359.32 2 .32 3.602 0 6.805-2.406 7.758-6.086 1.046-4.235-1.516-8.641-5.758-9.68zM427.601 384.764c-3.445-2.719-8.484-2.164-11.203 1.359-2.719 3.438-2.156 8.477 1.359 11.203a7.664 7.664 0 0 0 4.883 1.758 7.881 7.881 0 0 0 6.32-3.117c2.72-3.445 2.157-8.485-1.359-11.203zM76.32 412.686c-3.039 3.195-2.805 8.234.398 11.281a7.975 7.975 0 0 0 5.438 2.156c2.164 0 4.32-.883 5.922-2.563 2.961-3.273 2.719-8.32-.477-11.359-3.203-2.961-8.32-2.797-11.281.485zM395.758 409.084c-3.203 3.039-3.281 8.078-.242 11.281 1.602 1.602 3.68 2.477 5.766 2.477 2 0 4-.797 5.516-2.32 3.203-3.039 3.281-8.078.242-11.281-3.118-3.196-8.165-3.274-11.282-.157zM457.758 328.6c-4.078-1.758-8.719.242-10.398 4.32-1.68 4.086.242 8.805 4.32 10.484a8.503 8.503 0 0 0 3.039.563c3.203 0 6.156-1.844 7.438-4.961 1.679-4.086-.321-8.805-4.399-10.406zM463.425 270.462a8.04 8.04 0 0 0-.871 2.865c-.477 4.32 2.727 8.32 7.125 8.797.242.078.563.078.875.078 4 0 7.523-3.039 7.922-7.117a8.095 8.095 0 0 0-.491-3.792 24.058 24.058 0 0 1-14.56-.831zM444.64 357.725c-3.844-2.242-8.719-.961-10.883 2.875-2.242 3.844-.961 8.727 2.797 10.961 1.281.727 2.727 1.039 4.086 1.039 2.719 0 5.438-1.438 6.875-4 2.243-3.758.961-8.719-2.875-10.875zM196.242 467.803v-.078c-4.406-.805-8.563 2-9.445 6.32-.875 4.32 2 8.555 6.32 9.438.484.078 1.039.078 1.523.164 3.758 0 7.117-2.641 7.836-6.484.883-4.321-1.921-8.563-6.234-9.36zM165.836 36.123c.805 0 1.68-.078 2.563-.398 4.156-1.441 6.398-5.922 5.039-10.16-1.438-4.16-6-6.402-10.156-4.961-4.164 1.359-6.484 5.922-5.039 10.078 1.116 3.363 4.234 5.441 7.593 5.441zM24.719 161.084a7.773 7.773 0 0 0 3.203.719c3.117 0 6-1.758 7.359-4.801 1.758-4-.086-8.719-4.086-10.559-4.078-1.762-8.797.082-10.555 4.082a7.91 7.91 0 0 0 4.079 10.559zM83.758 84.526c1.922 0 3.844-.641 5.359-2.082 3.281-2.961 3.523-8 .563-11.281-3.039-3.277-8.078-3.52-11.359-.48a7.902 7.902 0 0 0-.484 11.281c1.522 1.679 3.679 2.562 5.921 2.562zM56.477 105.803c1.523 1.281 3.359 1.84 5.125 1.84 2.32 0 4.641-.961 6.234-2.879 2.805-3.359 2.32-8.398-1.117-11.281-3.359-2.801-8.398-2.32-11.203 1.043-2.875 3.437-2.399 8.476.961 11.277zM38.719 132.366a7.86 7.86 0 0 0 4.156 1.199c2.727 0 5.281-1.359 6.805-3.762 2.398-3.758 1.195-8.719-2.563-11.039-3.68-2.32-8.641-1.199-10.961 2.559-2.398 3.761-1.195 8.722 2.563 11.043zM166.398 459.647c-4.156-1.445-8.719.797-10.156 4.953-1.445 4.164.719 8.727 4.953 10.242.883.242 1.766.398 2.563.398 3.359 0 6.398-2.078 7.602-5.359 1.437-4.234-.719-8.719-4.962-10.234zM136.32 48.444c1.195 0 2.398-.238 3.602-.879 3.914-1.922 5.516-6.801 3.516-10.723-1.922-3.918-6.719-5.52-10.719-3.598v.078c-3.922 1.922-5.523 6.723-3.523 10.723 1.359 2.797 4.242 4.399 7.124 4.399zM319.758 38.682c.961.32 1.922.48 2.883.48 3.195 0 6.234-1.918 7.438-5.117 1.602-4.16-.477-8.801-4.563-10.32-4.156-1.602-8.797.48-10.32 4.641-1.595 4.078.484 8.718 4.562 10.316zM108.797 64.682a7.836 7.836 0 0 0 4.484-1.438c3.68-2.48 4.555-7.441 2.078-11.121a7.957 7.957 0 0 0-11.117-2c-3.602 2.48-4.563 7.441-2.086 11.121a8.135 8.135 0 0 0 6.641 3.438zM288.242 466.842c-4.32.961-7.047 5.203-6.086 9.523a7.952 7.952 0 0 0 7.766 6.32c.555 0 1.195-.086 1.758-.242 4.32-.961 7.039-5.203 6.078-9.523s-5.203-7.039-9.516-6.078zM290.242 29.725c.633.16 1.195.16 1.836.16a8.003 8.003 0 0 0 7.758-6.16c.961-4.32-1.68-8.641-6-9.602s-8.641 1.68-9.594 6a8.04 8.04 0 0 0 6 9.602z" fill="#5c546a"/><path d="M257.201 161.731zM253.024 161.006zM261.285 162.643c14.947 3.72 28.381 11.267 39.214 21.531a88.826 88.826 0 0 0-10.632-.662c-48.601 0-88 39.399-88 88 0 25.158 10.575 47.833 27.501 63.871-28.588-3.446-52.96-20.588-66.346-44.676 15.017 27.038 43.858 45.338 76.979 45.338 48.601 0 88-39.399 88-88-.001-41.261-28.4-75.883-66.716-85.402zM248.76 160.478zM154.352 268.323zM152.092 251.995zM152.368 256.07zM157.926 279.844zM152.836 260.173zM159.432 283.48zM161.122 287.092zM155.395 272.326zM240 160.045zM244.416 160.155zM162.988 290.648zM153.498 264.267z" fill="#708aff"/><path d="M229.367 335.383c-16.926-16.038-27.501-38.713-27.501-63.871 0-48.601 39.399-88 88-88 3.601 0 7.144.242 10.632.662-10.833-10.264-24.267-17.811-39.214-21.531l-.102-.025a85.967 85.967 0 0 0-3.982-.887l-.2-.038a86.84 86.84 0 0 0-3.977-.686l-.252-.035a89.612 89.612 0 0 0-4.011-.493l-.247-.022a89.087 89.087 0 0 0-4.097-.301l-.168-.006a89.317 89.317 0 0 0-4.248-.104c-48.601 0-88 39.399-88 88 0 1.324.035 2.64.093 3.95l.013.354c.06 1.248.15 2.487.262 3.72.016.171.029.343.046.515a88.036 88.036 0 0 0 .501 4.152c.171 1.184.365 2.361.583 3.53.032.173.066.346.1.52.229 1.187.479 2.366.754 3.536l.095.389c.292 1.214.606 2.42.948 3.615l.04.133a87.248 87.248 0 0 0 2.492 7.385l.052.137a88.097 88.097 0 0 0 3.144 7.11l.088.178a87.545 87.545 0 0 0 1.778 3.379l.033.059c13.386 24.087 37.757 41.229 66.345 44.675z" fill="#3d6edd"/><path d="M72.982 139.397zM108.132 105.249c.294.089.584.187.874.285-.29-.098-.58-.196-.874-.285zM106.842 104.891zM109.393 105.665zM102.808 104.186c.219.022.436.053.654.08-.218-.027-.435-.059-.654-.08zM110.623 106.137zM101.414 104.081c.176.009.35.027.525.039-.175-.013-.348-.03-.525-.039zM104.178 104.357c.245.037.486.083.728.126-.242-.043-.483-.09-.728-.126zM105.523 104.593c.264.053.525.115.786.175-.261-.061-.522-.123-.786-.175zM74.855 144.367c-.1-.204-.195-.411-.29-.617.095.206.19.413.29.617zM112.987 107.241zM75.46 145.532c-.115-.208-.223-.421-.333-.633.11.212.218.424.333.633zM74.302 143.169zM76.118 146.665c-.136-.222-.264-.448-.394-.674.13.226.258.452.394.674zM78.989 150.543zM78.293 149.727zM111.823 106.663zM72.66 138.081c-.043-.196-.087-.393-.126-.59.039.198.082.394.126.59zM73.364 140.683zM72.399 136.736c-.032-.192-.067-.383-.095-.576.028.193.062.384.095.576zM73.805 141.941zM72.067 133.893c-.01-.153-.025-.304-.032-.458.008.154.022.306.032.458zM72.201 135.354c-.021-.183-.046-.364-.064-.547.018.183.043.365.064.547zM116.209 109.221zM82.823 154.15zM84.829 155.574zM115.109 108.477a27.056 27.056 0 0 0 0 0zM119.25 111.722a28.188 28.188 0 0 0-3.383-.211c-15.464 0-28 12.536-28 28 0 8.005 3.365 15.22 8.75 20.323a27.85 27.85 0 0 1-9.719-3.044A27.866 27.866 0 0 0 100 160.044c15.464 0 28-12.536 28-28a27.884 27.884 0 0 0-6.417-17.837 28.243 28.243 0 0 0-2.333-2.485zM81.851 153.358zM117.268 110.013zM80.91 152.52zM119.25 111.722zM83.821 154.89zM118.281 110.846zM80.71 152.329zM79.131 150.707z" fill="#ffedb9"/><path d="M74.302 143.169c.085.195.174.388.263.581.095.207.19.413.29.617.088.179.181.355.273.532.11.212.218.424.333.633.085.155.176.306.264.459.13.226.258.453.394.674.058.095.121.187.18.281.61.967 1.273 1.898 1.994 2.78l.008.01c.224.274.455.541.688.806.039.045.076.092.116.136l.026.028c.224.25.454.494.687.735.062.064.122.13.184.193.231.236.469.466.708.694l.2.191c.243.227.492.448.743.667.066.057.131.115.198.171a28.722 28.722 0 0 0 1.811 1.42l.159.113c.297.211.599.417.904.616l.104.067c.327.211.657.417.993.614l.011.006a27.833 27.833 0 0 0 10.783 3.64c-5.386-5.103-8.75-12.318-8.75-20.323 0-15.464 12.536-28 28-28 1.146 0 2.273.077 3.383.211a27.769 27.769 0 0 0-.953-.863l-.015-.013a28.88 28.88 0 0 0-.975-.804l-.038-.03a27.634 27.634 0 0 0-.988-.741l-.071-.051a27.865 27.865 0 0 0-.991-.675l-.108-.069a29.505 29.505 0 0 0-.99-.609l-.15-.086c-.323-.187-.65-.368-.982-.542l-.202-.103a26.029 26.029 0 0 0-.963-.474l-.26-.118a28.945 28.945 0 0 0-.939-.409c-.105-.043-.212-.083-.318-.125-.302-.12-.604-.237-.911-.346-.128-.046-.258-.087-.387-.131-.29-.099-.58-.196-.874-.285-.151-.046-.304-.086-.456-.13a29.304 29.304 0 0 0-.834-.229c-.176-.044-.355-.082-.533-.123-.261-.06-.522-.122-.786-.175-.204-.041-.411-.074-.617-.11-.242-.043-.484-.089-.728-.126-.237-.035-.477-.061-.716-.091-.218-.027-.435-.059-.654-.08-.288-.029-.578-.046-.868-.066-.175-.012-.349-.03-.525-.039a28.85 28.85 0 0 0-1.414-.036c-15.464 0-28 12.536-28 28 0 .466.013.929.035 1.39.008.154.022.305.032.458.02.305.04.611.069.914.018.183.043.365.064.547.032.269.063.538.102.805.028.193.063.385.095.576.043.253.086.505.135.755.039.198.083.394.126.59.053.24.107.48.166.718.05.2.103.399.157.597a26.743 26.743 0 0 0 1.067 3.164c.08.207.164.411.251.613z" fill="#ffd586"/><path d="M450.469 258.651zM483.131 226.784zM481.105 225.838zM482.132 226.288zM486.833 229.185zM485.953 228.524zM485.043 227.903zM484.102 227.322zM448.892 254.523zM449.585 256.625zM496 248.045c0-7.259-3.227-13.76-8.319-18.161.279.241.552.488.819.741a24.135 24.135 0 0 0-2.9-.181c-13.255 0-24 10.745-24 24 0 6.861 2.884 13.045 7.5 17.419a23.886 23.886 0 0 1-10.137-3.673 23.92 23.92 0 0 0 13.036 3.854c2.067 0 4.072-.262 5.986-.753C488.344 268.633 496 259.233 496 248.045zM448.1 250.187zM478.97 225.077zM448.395 252.366zM480.051 225.433zM457.161 266.901zM455.538 265.501zM458.922 268.165zM454.069 263.991zM451.534 260.584zM477.411 224.665c-.225-.052-.45-.105-.677-.151.227.046.452.099.677.151zM478.58 224.966c-.238-.068-.476-.136-.717-.196.241.06.479.128.717.196zM476.205 224.42c-.207-.037-.414-.076-.623-.108.209.032.415.071.623.108zM473.655 224.108c-.148-.01-.294-.025-.442-.033.148.008.295.023.442.033zM474.965 224.234c-.186-.023-.371-.05-.559-.069.188.019.373.046.559.069z" fill="#ff7400"/><path d="M469.1 271.865c-4.616-4.374-7.5-10.558-7.5-17.419 0-13.255 10.745-24 24-24 .982 0 1.948.066 2.9.181-.267-.253-.54-.5-.819-.741l-.009-.008a23.993 23.993 0 0 0-.838-.691l-.031-.025c-.278-.218-.561-.43-.848-.636l-.059-.042a23.61 23.61 0 0 0-.852-.579l-.092-.059a23.015 23.015 0 0 0-1.82-1.06l-.171-.088a24.44 24.44 0 0 0-.828-.408c-.072-.034-.146-.066-.219-.099-.267-.122-.536-.24-.808-.352-.09-.037-.181-.071-.272-.107a22.947 22.947 0 0 0-.783-.297c-.109-.039-.22-.074-.329-.111a23.516 23.516 0 0 0-.751-.245c-.086-.026-.174-.05-.261-.075-.043-.012-.087-.023-.13-.036-.238-.068-.476-.136-.717-.196-.15-.038-.302-.07-.453-.104-.225-.052-.45-.105-.677-.151-.175-.035-.353-.063-.529-.094-.207-.037-.414-.076-.623-.108-.204-.031-.411-.053-.617-.078-.186-.023-.371-.05-.559-.069-.249-.025-.5-.04-.751-.057-.148-.01-.294-.025-.442-.033a23.939 23.939 0 0 0-10.252 1.735c-8.773 3.569-14.96 12.176-14.96 22.232 0 .723.038 1.436.1 2.142.006.063.008.128.015.191.065.672.162 1.333.281 1.988.017.091.031.182.049.273.124.638.275 1.266.448 1.884l.082.288c.181.615.384 1.22.612 1.813l.102.258c.239.601.498 1.192.782 1.769l.091.179c.302.599.624 1.185.973 1.754l.029.045a24.042 24.042 0 0 0 5.677 6.334 24.088 24.088 0 0 0 1.723 1.229 23.877 23.877 0 0 0 10.136 3.673z" fill="#d55a00"/><path d="M246.971 361.077zM237.1 407.864zM226.921 404.164zM244.734 360.514c.227.046.451.099.675.15-.224-.051-.448-.104-.675-.15zM245.864 360.77zM243.582 360.312c.209.031.415.071.622.107-.207-.036-.413-.075-.622-.107zM242.406 360.165c.188.019.372.046.559.069-.186-.023-.371-.05-.559-.069zM217.586 392.625zM216.395 388.366zM218.47 394.651zM225.16 402.9zM216.892 390.523zM216.1 386.187zM222.069 399.991zM223.537 401.5zM219.534 396.583zM241.213 360.076c.148.007.295.022.442.032-.147-.01-.294-.025-.442-.032zM249.105 361.838zM250.132 362.288zM264 384.045c0-.294-.012-.585-.022-.876-.004-.113-.003-.227-.009-.339-.338-6.767-3.482-12.791-8.289-16.945.279.241.552.488.819.741a24.135 24.135 0 0 0-2.9-.181c-13.255 0-24 10.745-24 24 0 6.861 2.884 13.045 7.5 17.419.951.115 1.918.181 2.9.181 13.256 0 24.001-10.745 24.001-24zM248.051 361.433zM254.833 365.185zM253.953 364.524zM251.132 362.784zM252.102 363.323zM253.043 363.903z" fill="#ffd042"/><path d="M229.6 390.445c0-13.255 10.745-24 24-24 .982 0 1.948.066 2.9.181-.267-.253-.54-.5-.819-.741l-.009-.008a23.993 23.993 0 0 0-.838-.691l-.031-.025c-.278-.218-.561-.43-.848-.636l-.059-.042a23.61 23.61 0 0 0-.852-.579l-.092-.059c-.279-.18-.562-.354-.849-.522l-.129-.074c-.277-.16-.557-.315-.841-.464l-.173-.088a22.624 22.624 0 0 0-.827-.407c-.072-.034-.146-.066-.219-.099-.267-.122-.536-.24-.808-.352-.09-.037-.182-.071-.272-.107a23.72 23.72 0 0 0-.782-.297c-.109-.039-.219-.074-.329-.111a24.37 24.37 0 0 0-.751-.245c-.129-.039-.261-.074-.391-.111a24.287 24.287 0 0 0-.715-.196c-.15-.038-.303-.07-.455-.105-.224-.052-.448-.105-.675-.15-.175-.035-.353-.063-.53-.095-.207-.037-.413-.076-.622-.107-.204-.031-.411-.053-.617-.078-.186-.023-.371-.05-.559-.069-.249-.025-.5-.04-.751-.057-.148-.01-.294-.025-.442-.032-.402-.02-.806-.031-1.213-.031-13.255 0-24 10.745-24 24 0 .723.038 1.436.1 2.142.006.064.008.128.015.191.065.672.162 1.333.281 1.988.017.091.031.182.049.273.124.638.275 1.266.448 1.884l.082.288c.181.615.384 1.22.612 1.813l.102.258c.239.601.498 1.192.782 1.769l.091.179c.302.598.624 1.185.973 1.753l.03.047a24.105 24.105 0 0 0 2.504 3.361l.037.042c.456.51.935.998 1.432 1.467l.077.073c.496.464 1.012.906 1.546 1.326l.081.063c.542.423 1.102.825 1.68 1.201l.043.028a23.863 23.863 0 0 0 10.135 3.672c-4.618-4.376-7.502-10.56-7.502-17.421z" fill="#dbb246"/></svg>