<?xml version="1.0" encoding="UTF-8"?>
<!-- Generator: Adobe Illustrator 16.0.4, SVG Export Plug-In . SVG Version: 6.00 Build 0)  -->
<!DOCTYPE svg PUBLIC "-//W3C//DTD SVG 1.1//EN" "http://www.w3.org/Graphics/SVG/1.1/DTD/svg11.dtd">
<svg version="1.1" id="Layer_1" xmlns="http://www.w3.org/2000/svg" xmlns:xlink="http://www.w3.org/1999/xlink" x="0px" y="0px" width="130px" height="130px" viewBox="0 0 130 130" enable-background="new 0 0 130 130" xml:space="preserve">
<g>
	<rect x="39.616" y="89.054" fill="#A62C46" width="2.88" height="2.331"/>
	<rect x="53.183" y="88.842" fill="#A62C46" width="3.216" height="3.587"/>
	<path fill="#A62C46" d="M65,0C29.102,0,0,29.102,0,65c0,35.899,29.102,65,65,65s65-29.101,65-65C130,29.102,100.898,0,65,0z    M85.88,25.944l3.657,2.66l-0.664,0.997l-3.104-1.662L85.88,25.944z M75.242,22.731l0.443,2.881l-4.545,0.111l-0.663-3.214   L75.242,22.731z M61.168,24.283l2.659,2.992l-3.656,2.105l-2.66-3.213L61.168,24.283z M48.757,33.813l3.878,2.549l-2.991,3.545   l-3.99-2.658L48.757,33.813z M38.894,48.441l5.098,1.995l-1.551,4.322l-5.209-1.663L38.894,48.441z M33.353,66.947l5.763,0.443   l-0.997,5.762l-5.431-0.665L33.353,66.947z M42.496,98.223l-3.039-3.039v3.41h-3.34V85.503h4.276c3.378,0,6.306,0.502,6.306,4.382   c-0.222,4.227-3.146,4.274-3.146,4.274l4.064,4.063H42.496z M59.896,98.205h-3.445v-2.174H53.13v2.226h-3.428V89.16   c0-3.445,2.535-3.615,4.364-3.604c0.26,0.001,0.5,0,0.724,0c1.781,0,5.106,0.116,5.106,3.109V98.205z M66.875,98.087h-3.546V85.564   h3.546V98.087z M79.119,98.254h-8.531V85.731l3.49-0.057v9.254h5.041V98.254z M69.923,50.989l-0.888,3.657l-3.767-3.214   l1.439-2.881L69.923,50.989z M68.814,41.459l2.326-2.106l2.217,3.324l-1.33,2.328L68.814,41.459z M69.369,60.852l0.221,3.657   l-4.654-1.995l0.222-3.878L69.369,60.852z M71.362,72.377l2.106,4.323l-5.873-0.333l-1.109-3.99H71.362z M77.126,38.578   l-1.44-2.659l3.102-0.776l0.443,1.773L77.126,38.578z M85.548,98.364c-3.713,0-4.488,0-4.488,0v-3.047c0,0,3.602,0,5.153,0   c1.551,0,1.637-0.507,1.637-0.945c0-0.44-0.793-0.646-2.407-0.646c-1.613,0-4.604-0.793-4.604-3.896s1.552-4.267,4.655-4.267   c3.102,0,4.931,0.057,4.931,0.057v3.38h-5.707v1.218c0,0,1.163,0,2.438,0c1.274,0,3.934-0.056,3.934,3.934   C91.089,98.143,89.26,98.364,85.548,98.364z M85.215,36.14v-1.662l2.992,0.664v1.33L85.215,36.14z M91.754,35.918   c0,0-3.324-3.769-9.42-3.104c-6.095,0.665-16.845,6.871-18.507,20.501s4.877,28.48,4.877,28.48H39.226   c0,0-0.775-4.876,1.108-14.185c1.884-9.309,4.654-15.515,9.42-24.38c4.765-8.866,12.411-16.18,23.493-17.176   c11.081-0.998,19.837,7.868,19.837,7.868L91.754,35.918z"/>
</g>
</svg>