<svg xmlns="http://www.w3.org/2000/svg" preserveAspectRatio="xMidYMid" width="199.975" height="57.055" viewBox="0 0 354 101"><path d="M352.243 7.274l-22.875 21.124v68.624c0 2.125-1.625 3.75-3.75 3.75-2 0-3.75-1.625-3.75-3.75V28.273L300.869 7.149c-.125 0-.125 0-.125-.125h-.125v-.125s-.125 0-.125-.125c0 0 0-.125-.125-.125v-.125h-.125v-.25c-.125 0-.125 0-.125-.125v-.125h-.125v-.25l-.125-.125v-.125-.25l-.125-.125v-.375-.375-.25-.125c0-.125 0-.125.125-.125v-.125-.125-.125-.125h.125v-.25c0-.125 0-.125.125-.125v-.125c0-.125 0-.125.125-.125v-.125c0-.125 0-.125.125-.125v-.125c.125 0 .125-.125.125-.125 0-.125.125-.125.125-.125v-.125h.125s0-.125.125-.125c0-.125.125-.125.125-.125v-.125h.125s0-.125.125-.125c0 0 .125 0 .125-.125h.125s0-.125.125-.125h.125c0-.125 0-.125.125-.125h.125s0-.125.125-.125h.25V.899h.499c0-.125 0-.125.125-.125h46.75c1.5 0 2.875 1 3.5 2.375.5 1.5.125 3.125-1 4.125zm-39.75 1l13.25 13.249 14.375-13.249h-27.625zm-27.123 92.498c-2.125 0-3.75-1.625-3.75-3.75V4.524c0-2.125 1.625-3.75 3.75-3.75s3.75 1.625 3.75 3.75v92.498c0 2.125-1.625 3.75-3.75 3.75zm-21-17.125c-4.124 6.125-10.124 11.125-17.124 14.125-4.625 1.875-9.75 3-15.125 3-4 0-7.875-.625-11.5-1.75a36.873 36.873 0 0 1-10.25-4.875c-6.124-4.25-11.124-10.125-14.124-17.125-1.875-4.625-3-9.75-3-15.124v-34.25c0-2.75.375-5.5 1.25-8 .75-2.5 1.875-4.875 3.375-6.999 2.875-4.25 7-7.75 11.749-9.75a26.705 26.705 0 0 1 10.5-2.125c2.75 0 5.5.375 8 1.25 2.5.75 4.875 1.875 7 3.375 4.25 2.875 7.75 7 9.75 11.749 1.125 2.75 1.875 5.625 2 8.75 4.875 2 9.125 4.875 12.75 8.5 4.249 4.125 7.499 9.375 9.499 15.125 1.25 3.875 1.875 8 1.875 12.375 0 4-.5 7.874-1.75 11.499a36.873 36.873 0 0 1-4.875 10.25zm-24.874-55.999c0-2-.25-3.875-.875-5.75a23.962 23.962 0 0 0-2.375-5.125c-2.125-3-5.125-5.499-8.625-6.999-2.25-1-4.875-1.5-7.5-1.5-2 0-4 .375-5.75.875-1.875.625-3.5 1.375-5.125 2.5-2.999 1.999-5.499 4.999-6.999 8.499-1 2.25-1.5 4.875-1.5 7.5v19.375h19.374c2 0 4-.25 5.75-.875 1.875-.5 3.5-1.375 5.125-2.375 3-2.125 5.5-5.125 7-8.625.875-2 1.375-4.375 1.5-6.75v-.75zm20.5 19.75c-2.25-4.25-5.375-8-9.375-10.875-1.375-1-2.75-1.875-4.375-2.75-.125.625-.25 1.25-.5 1.875-.75 2.5-1.875 4.875-3.375 7-2.875 4.375-7 7.75-11.75 9.75a26.705 26.705 0 0 1-10.5 2.125h-19.374v7.375c0 3.25.5 6.374 1.375 9.249 1 3 2.25 5.75 4 8.25 3.374 5 8.124 9 13.749 11.375 3.75 1.625 7.875 2.5 12.25 2.5 3.25 0 6.375-.5 9.375-1.375 3-1 5.75-2.25 8.25-4 5-3.375 9-8.125 11.374-13.75a32.891 32.891 0 0 0 2.375-12.249c0-5.25-1.25-10.125-3.499-14.5zm-84.499 51.249l-21.25-42.374-65.749 43.874c-1.5 1-3.375.875-4.625-.25-1.249-1.125-1.624-3-.874-4.5l46.249-92.498c.625-1.375 2-2.125 3.375-2.125s2.75.75 3.375 2.125l46.249 92.498c.875 1.75.125 4-1.75 5-1.75.875-4 .125-5-1.75zm-42.874-85.748L95.998 86.022l54.874-36.499-18.249-36.624zm-64.498 87.873c-2.125 0-3.75-1.625-3.75-3.75V4.524c0-2.125 1.625-3.75 3.75-3.75s3.75 1.625 3.75 3.75v92.498c0 2.125-1.625 3.75-3.75 3.75zM49.124 42.648c-2.875 4.375-7 7.75-11.75 9.75a26.705 26.705 0 0 1-10.5 2.125h-.75l27 40.374c1.125 1.75.625 4.125-1 5.25-1.75 1.125-4.125.625-5.25-1L17.125 54.523H7.5v42.499c0 2.125-1.625 3.75-3.75 3.75S0 99.147 0 97.022V50.773c0-1 .375-2 1.125-2.625.625-.75 1.625-1.125 2.625-1.125h8.375l-11.5-17.25C.25 29.148 0 28.398 0 27.648c0-2.75.375-5.5 1.25-8 .75-2.5 1.875-4.875 3.375-6.999 2.875-4.25 7-7.75 11.75-9.75A26.704 26.704 0 0 1 26.874.774c2.75 0 5.5.375 8 1.25 2.5.75 4.875 1.875 7 3.375 4.375 2.875 7.75 7 9.75 11.749a26.705 26.705 0 0 1 2.125 10.5c0 2.75-.375 5.5-1.25 8-.75 2.5-1.875 4.875-3.375 7zm-3.75-20.75c-.5-1.875-1.375-3.5-2.375-5.125-2.125-3-5.125-5.499-8.625-6.999-2.25-1-4.75-1.5-7.5-1.5-1.999 0-3.999.25-5.749.875-1.875.625-3.5 1.375-5.125 2.5-3 1.999-5.5 4.999-7 8.499-.875 2-1.375 4.125-1.5 6.375l13.625 20.5h5.749c2 0 4-.25 5.75-.875 1.875-.5 3.5-1.375 5.125-2.375 3-2.125 5.5-5.125 7-8.625 1-2.25 1.5-4.75 1.5-7.5 0-2-.25-4-.875-5.75z" fill="#fff" fill-rule="evenodd"/></svg>